<svg id="レイヤー_1" data-name="レイヤー 1" xmlns="http://www.w3.org/2000/svg" viewBox="0 0 1020 440"><defs><style>.cls-1,.cls-2{fill:#002c76;}.cls-1{stroke:#002c76;stroke-miterlimit:10;}</style></defs><g id="_2" data-name="2"><polygon class="cls-1" points="111.5 98 26.5 358 74.27 358 158.35 133 230.54 358 259.33 358 181.5 98 111.5 98"/><polygon class="cls-2" points="189.5 238.67 194.4 253.67 133.69 252.66 128.11 272.5 200.74 273.66 206.09 287.41 104.24 286.16 120.93 238.67 189.5 238.67"/><path class="cls-1" d="M334.68,182.28h-24.5v5.59h18.65c2.73,0,4.16,1.43,4.16,4.16v17.36c0,2.73-1.43,4.16-4.16,4.16H310.18v15.92c0,1.57-.72,2.35-2.73,2.35s-2.73-.78-2.73-2.35V213.55h-.39l-20.87,16.38a2.09,2.09,0,0,1-1.3.59c-1.17,0-2.47-2-2.47-3.13a2.12,2.12,0,0,1,1-1.62l15.66-12.22H286.06c-2.73,0-4.16-1.43-4.16-4.16V192c0-2.73,1.43-4.16,4.16-4.16h18.66v-5.59H280.08c-1.36,0-2-.58-2-2.34s.65-2.34,2-2.34h24.64v-2c0-1.56.65-2.41,2.73-2.41s2.73.85,2.73,2.41v2h24.5c1.37,0,2.08.59,2.08,2.34S336.05,182.28,334.68,182.28Zm-30,10.27H287.17v5.85h17.55Zm0,10.4H287.17v5.85h17.55Zm22.94-10.4H310.18v5.85h17.48Zm0,10.4H310.18v5.85h17.48Zm6.76,26.26c-.65.85-1.23,1.24-1.82,1.24a2.09,2.09,0,0,1-1.36-.58l-12.09-9.75a2,2,0,0,1-.91-1.57c0-1.1,1.49-3,2.66-3a2.38,2.38,0,0,1,1.37.65l12,9.69a2.13,2.13,0,0,1,.91,1.56A2.79,2.79,0,0,1,334.42,229.21Z"/><path class="cls-1" d="M355.74,196c-.45,1.36-1,1.95-1.88,1.95a2.64,2.64,0,0,1-1-.2l-8.06-2.6c-1-.32-1.56-.84-1.56-1.82,0-1.23.72-3.18,2.15-3.18a2.56,2.56,0,0,1,.91.19l8,2.54c1,.32,1.63.91,1.63,1.88A4.5,4.5,0,0,1,355.74,196Zm.33,11.18-7.35,23.08c-.32,1-.84,1.62-1.82,1.62-1.3,0-3.31-.78-3.31-2.27a2.63,2.63,0,0,1,.19-1l7.35-23.14c.32-1,.84-1.63,1.88-1.63,1.3,0,3.25.78,3.25,2.35A2.61,2.61,0,0,1,356.07,207.18Zm-.26-26.39c-.39,1.23-1,1.75-1.82,1.75a3.19,3.19,0,0,1-1-.19l-7.22-2.93c-1-.39-1.43-.91-1.43-1.82,0-1.17.72-3.18,2.08-3.18a3.19,3.19,0,0,1,1,.19l7.22,3a1.93,1.93,0,0,1,1.43,1.89A3.94,3.94,0,0,1,355.81,180.79Zm43.74.19H366.14l-2.6,8.71c-.32,1-.91,1.63-1.88,1.63-1.3,0-3.38-.65-3.38-2.08a2.63,2.63,0,0,1,.19-1l4.23-14a2,2,0,0,1,2.08-1.69c1.23,0,3.18.46,3.18,1.95a2.63,2.63,0,0,1-.19,1l-.13.52h31.91c1.43,0,2.21.65,2.21,2.53S401,181,399.55,181Zm.07,28.6h-1.37l-.65,20.68a2.24,2.24,0,0,1-2.47,1.88,2.11,2.11,0,0,1-2.34-1.82l.07-2.6H366.14c-2.6,0-4.29-1.5-4.16-4l.85-14.17h-1.5c-1.43,0-2.08-.58-2.08-2.4s.65-2.47,2.08-2.47h1.82l.85-13.33a4.67,4.67,0,0,1,4.81-4.61h25.67c2.67,0,4.42,1.43,4.36,4.09l-.46,13.85h1.24c1.43,0,2.14.65,2.14,2.47S401.05,209.58,399.62,209.58Zm-31.92,0-.84,13.33h10.46l.78-13.33Zm1.11-18.07-.85,13.2h10.47l.78-13.2Zm13.91,18.07L382,222.91h11.05l.39-13.33Zm1-18.07-.72,13.2h10.6l.39-13.2Z"/><path class="cls-1" d="M460.07,231H414.83A4.83,4.83,0,0,1,410,226.1V178.77c0-2.73,2.15-4.48,4.88-4.48h45.24c2.73,0,4.87,1.75,4.87,4.48V226.1A4.82,4.82,0,0,1,460.07,231ZM460,178.9H415v47.52h45Zm-6.82,41.28H421.72c-1.37,0-2-.59-2-2.34s.65-2.34,2-2.34h13.39V204.25h-11c-1.3,0-1.95-.52-1.95-2.27s.65-2.34,1.95-2.34h11V190H422.43c-1.36,0-2-.58-2-2.34s.65-2.34,2-2.34h30c1.37,0,2.08.59,2.08,2.34s-.71,2.34-2.08,2.34H439.85v9.69h10.92c1.3,0,2,.58,2,2.34s-.72,2.27-2,2.27H439.85V215.5h13.33c1.36,0,2.08.58,2.08,2.34S454.54,220.18,453.18,220.18Zm-3.58-6.05a1.49,1.49,0,0,1-1.43-1l-2.08-4.48a1.81,1.81,0,0,1-.26-.91c0-1,1.56-1.76,2.47-1.76a1.58,1.58,0,0,1,1.5,1.11l2.08,4.42a1.81,1.81,0,0,1,.26.91C452.14,213.42,450.51,214.13,449.6,214.13Z"/><path class="cls-1" d="M529.55,230.91H475.21c-1.43,0-2.14-.59-2.14-2.54s.71-2.54,2.14-2.54h33.28l7.74-33.15a2,2,0,0,1,2.21-1.88c1.23,0,3.18.45,3.18,2a4.2,4.2,0,0,1-.13.85L514,225.83h15.6c1.43,0,2.21.66,2.21,2.54S531,230.91,529.55,230.91Zm-2-45.18H477.23c-1.5,0-2.21-.59-2.21-2.54s.71-2.6,2.21-2.6h22.55v-5.07c0-1.56.65-2.34,2.67-2.34s2.66.78,2.66,2.34v5.07h22.43c1.49,0,2.27.65,2.27,2.6S529,185.73,527.54,185.73Zm-38.68,35.42c-1.43,0-2-.65-2.21-2l-3.57-26.07c0-1.82,1.75-2.21,3.25-2.21s1.95.65,2.14,2L492,218.42c0,.2.07.39.07.53C492.05,220.77,490.36,221.15,488.86,221.15Z"/><path class="cls-1" d="M594.36,192.88H569.14l-24.38,37.18a2.25,2.25,0,0,1-1.82,1.23c-1.23,0-3.57-1.49-3.57-2.79a2.7,2.7,0,0,1,.52-1.43l22.42-34.19h-21.9c-1.56,0-2.34-.65-2.34-2.73s.78-2.8,2.34-2.8h24.18V175.72c0-1.69.71-2.54,2.86-2.54s2.86.85,2.86,2.54v11.63h24.05c1.56,0,2.4.72,2.4,2.8S595.92,192.88,594.36,192.88ZM592,231.36c-.72,0-1.24-.45-1.76-1.24L573,202.43a2.58,2.58,0,0,1-.46-1.43c0-1.3,2.08-2.73,3.38-2.73.72,0,1.24.46,1.76,1.24L595,227.07a2.65,2.65,0,0,1,.45,1.43C595.46,229.8,593.32,231.36,592,231.36Z"/><path class="cls-1" d="M659.16,195.22c-1.95,0-2.53-.72-2.53-2.21v-5.4h-48.3V193c0,1.49-.65,2.21-2.6,2.21s-2.53-.72-2.53-2.21v-5.92a4.19,4.19,0,0,1,4.48-4.48h38.74l2.8-7.48a2.05,2.05,0,0,1,2-1.62c1.17,0,3.12.65,3.12,2a3.19,3.19,0,0,1-.19,1L652,182.61h5.33a4.19,4.19,0,0,1,4.48,4.48V193C661.76,194.5,661.11,195.22,659.16,195.22Zm.39,20.41h-24v12c0,2.73-1.43,4.16-4.16,4.16H620.1c-1.43,0-2.15-.58-2.15-2.54s.72-2.53,2.15-2.53h10.07V215.63H605.34c-1.43,0-2.14-.59-2.14-2.47s.71-2.54,2.14-2.54h24.83v-3.31a3.84,3.84,0,0,1,1.69-3.06L642,198.92H615.42c-1.43,0-2.08-.58-2.08-2.4s.65-2.47,2.08-2.47H645c3,0,4.55,1.88,4.55,3.77a3.47,3.47,0,0,1-1.75,3.05l-12.22,6.76v3h24c1.43,0,2.21.65,2.21,2.54S661,215.63,659.55,215.63Zm-45.63-33.22a1.86,1.86,0,0,1-1.88-1.56l-1.3-4.09a4.2,4.2,0,0,1-.13-.85c0-1.43,1.82-1.95,3-1.95a1.89,1.89,0,0,1,1.95,1.56l1.3,4a2.56,2.56,0,0,1,.19.91C617,181.89,615.09,182.41,613.92,182.41Zm17.23,0c-1,0-1.56-.52-1.89-1.56l-1.43-4.68a4.8,4.8,0,0,1-.13-.84c0-1.43,1.89-2,3.06-2s1.56.52,1.88,1.56l1.37,4.68a4.8,4.8,0,0,1,.13.84C634.14,181.89,632.32,182.41,631.15,182.41Z"/><path class="cls-1" d="M684.58,209.19a1.54,1.54,0,0,1-1.37-.9l-3.57-6.18v27.63c0,1.36-.65,2-2.41,2s-2.34-.65-2.34-2V199.31l-3.7,15.41c-.2.84-.59,1.36-1.43,1.36-1.11,0-2.67-.58-2.67-1.88a2.25,2.25,0,0,1,.07-.65l5.2-20.93a1.58,1.58,0,0,1,1.49-1.43,2,2,0,0,1,1,.26v-3.32h-4.74c-1.43,0-2.15-.58-2.15-2.47s.72-2.53,2.15-2.53h4.74V175.2c0-1.37.59-2.08,2.34-2.08s2.41.71,2.41,2.08v7.93h4.48c1.43,0,2.21.65,2.21,2.53s-.78,2.47-2.21,2.47h-4.48V198a2.43,2.43,0,0,1,1.17-.39c.52,0,.91.33,1.3.91l4.68,7.61a1.89,1.89,0,0,1,.39,1.1C687.18,208.22,685.49,209.19,684.58,209.19Zm16.77-5.33a1.26,1.26,0,0,1-1.37-1.23l-.13-.78H689.06c-1,0-1.69-.52-1.69-1.56v-1.43a4.66,4.66,0,0,1,.72-2.21l3.9-6.18-3.51-1.17a1.88,1.88,0,0,1-1.24-1.69v-1.75a5.17,5.17,0,0,1,.65-2.21l5.53-9.56a1.42,1.42,0,0,1,1.3-.71,2.1,2.1,0,0,1,2.21,1.88,1.06,1.06,0,0,1-.13.65l-5.85,10,3.31,1,3.84-6.11a1.45,1.45,0,0,1,1.3-.65,2.2,2.2,0,0,1,2.21,2,1.34,1.34,0,0,1-.2.72l-9.16,14.88h6.89l-.91-5.59c0-1.17,1.1-1.49,2.08-1.49s1.3.45,1.43,1.36l1.69,10v.39C703.43,203.6,702.32,203.86,701.35,203.86Zm23.46,7.35h-9.94L718.7,218l2.67-2.6a2.07,2.07,0,0,1,1.23-.65,3,3,0,0,1,2.34,2.47,1.91,1.91,0,0,1-.71,1.3l-3.32,3.25,4,7.09a1.93,1.93,0,0,1,.33,1.1c0,1.11-1.82,2.15-2.8,2.15a1.74,1.74,0,0,1-1.43-1l-3.44-6-5.85,5.79a1.68,1.68,0,0,1-1.17.58,3.17,3.17,0,0,1-2.28-2.47,1.9,1.9,0,0,1,.65-1.23l6.5-6.44-5.65-10H698.16l-2,6.24,7.67,7.6a1.92,1.92,0,0,1,.71,1.31,3.21,3.21,0,0,1-2.47,2.47,1.78,1.78,0,0,1-1.23-.65l-6.11-6.12-2.67,8.39a1.6,1.6,0,0,1-1.62,1.37c-1,0-2.8-.59-2.8-1.82a4.9,4.9,0,0,1,.13-.85l5.72-17.94h-4.22c-1.3,0-1.89-.52-1.89-2.21s.59-2.28,1.89-2.28h18l-2.47-4.35a6.12,6.12,0,0,1-.65-2.41V175.13c0-1.3.52-1.95,2.21-1.95s2.21.65,2.21,1.95v25.09l3.71,6.5h5.39l-.32-1.75c0-1.24,1.3-1.63,2.27-1.63s1.43.52,1.63,1.43l.39,1.95h3.18c1.3,0,2,.59,2,2.28S726.11,211.21,724.81,211.21Zm.07-7.41a1.29,1.29,0,0,1-1.43-1.24l-.13-.71H712.2c-1,0-1.69-.52-1.69-1.56v-1.43a4.66,4.66,0,0,1,.72-2.21l4-6.18-3.57-1.17a1.88,1.88,0,0,1-1.24-1.69v-1.75a5.17,5.17,0,0,1,.65-2.21l5.53-9.56a1.42,1.42,0,0,1,1.3-.71,2.1,2.1,0,0,1,2.21,1.88,1.06,1.06,0,0,1-.13.65l-5.85,10,3.31,1,3.84-6.11a1.45,1.45,0,0,1,1.3-.65,2.2,2.2,0,0,1,2.21,2,1.34,1.34,0,0,1-.2.72l-9.16,14.88h7.21l-1-6c0-1.11,1.17-1.37,2.08-1.37a1.36,1.36,0,0,1,1.49,1.37L727,202v.39C727,203.54,725.85,203.8,724.88,203.8Z"/><path class="cls-1" d="M752.11,209c-.52,0-.91-.33-1.3-.91l-4.61-7v28.54c0,1.43-.65,2.08-2.47,2.08s-2.47-.65-2.47-2.08V198l-4.68,17c-.26.91-.72,1.43-1.56,1.43-1.11,0-2.93-.71-2.93-2a5,5,0,0,1,.13-.85l5.92-20.8c.26-.91.71-1.43,1.56-1.43a4.37,4.37,0,0,1,1.56.39v-3.51h-6c-1.43,0-2.14-.58-2.14-2.47s.71-2.53,2.14-2.53h6v-7.87c0-1.43.58-2.14,2.47-2.14s2.47.71,2.47,2.14v7.87h5.59c1.43,0,2.21.65,2.21,2.53s-.78,2.47-2.21,2.47H746.2v9.36c.06,0,.06-.06.13-.06a2.7,2.7,0,0,1,1.43-.52c.52,0,.91.32,1.3.91l5.26,7.93a2.07,2.07,0,0,1,.39,1.1C754.71,207.89,753,209,752.11,209Zm38.16,15.93h-.78v4.74c0,1.43-.65,2.08-2.41,2.08s-2.4-.65-2.4-2.08v-4.74H761.54v4.81c0,1.36-.59,2-2.34,2s-2.34-.65-2.34-2v-4.81h-.65c-1.24,0-1.82-.52-1.82-2.15s.58-2.15,1.82-2.15h.65V206.07c0-2.73,1.75-4.16,4.48-4.16H771v-3.83H756.34c-1.24,0-1.82-.52-1.82-2.15s.58-2.14,1.82-2.14h5.52v-4.55h-2.73c-1.23,0-1.82-.52-1.82-2.08s.59-2.15,1.82-2.15h2.73V180.4h-4.48c-1.24,0-1.82-.52-1.82-2.15s.58-2.14,1.82-2.14h4.48v-.85c0-1.36.59-2.08,2.34-2.08s2.41.72,2.41,2.08v.85h13.06v-.85c0-1.36.59-2.08,2.34-2.08s2.41.72,2.41,2.08v.85h4.42c1.23,0,1.88.58,1.88,2.14s-.65,2.15-1.88,2.15h-4.42V185h2.66c1.24,0,1.89.59,1.89,2.15s-.65,2.08-1.89,2.08h-2.66v4.55h5.46c1.23,0,1.88.58,1.88,2.14s-.65,2.15-1.88,2.15H775.19v3.83H785c2.73,0,4.49,1.43,4.49,4.16v14.56h.78c1.23,0,1.88.59,1.88,2.15S791.5,224.93,790.27,224.93ZM771,206.14h-9.42v5.2H771Zm0,9.36h-9.42v5.13H771Zm8.71-35.1H766.61V185h13.06Zm0,8.84H766.61v4.55h13.06Zm5,16.9h-9.49v5.2h9.49Zm0,9.36h-9.49v5.13h9.49Z"/><path class="cls-1" d="M322.85,319H307.77a1.47,1.47,0,0,0-1.56,1l-5.13,19.77c-.65,2.6-2,3.51-4.75,3.51h-7.8c-1.3,0-1.88-.52-1.88-2.6s.52-2.67,1.88-2.67h5.85a1.85,1.85,0,0,0,2.08-1.63l5.2-19.76c.59-2.21,1.69-3,4.1-3h15.53c4.81,0,7.28-3.12,7.28-7.86v-6c0-1.17-.19-2.21-2.21-2.21H282.94c-1.3,0-1.88-.59-1.88-2.67s.52-2.66,1.88-2.66h45.7c4.22,0,5.26,1.3,5.26,5.2v9.68C333.9,312.8,331.24,319,322.85,319Z"/><path class="cls-1" d="M390.32,343.36H379c-1.3,0-1.88-.59-1.88-2.6s.52-2.67,1.88-2.67h8.58c1.89,0,2.47-1,2.47-2.73V306.82a1.94,1.94,0,0,0-2.21-2.21H364.26v13c0,4-.13,5.72-2.21,9.43L353.14,343c-.32.53-.65.85-1.17.85-1,0-3.7-1.49-3.7-2.6a2.22,2.22,0,0,1,.39-1.1l8.51-15.48c1.56-2.79,1.69-4.16,1.69-7.8V304.61H347.68c-1.23,0-1.88-.52-1.88-2.66s.58-2.67,1.88-2.67h11.18v-6.69c0-1.37.52-1.89,2.73-1.89s2.67.59,2.67,1.89v6.69h25.87c3.57,0,5.33,1.76,5.33,5.2v33.29C395.46,341.47,393.57,343.36,390.32,343.36Z"/><path class="cls-1" d="M462.15,316.12H446.94v8.19a9.66,9.66,0,0,1-1.89,6.24l-5.91,9.62c-1.5,2.41-2.8,3.05-6.18,3.05H415.35c-1.24,0-1.89-.51-1.89-2.53s.59-2.66,1.89-2.66h16.44c1.69,0,2.47-.33,3.12-1.43l5.53-9.17a5.82,5.82,0,0,0,1.1-3.77v-7.54h-29c-1.23,0-1.88-.59-1.88-2.67s.58-2.66,1.88-2.66h49.6c1.3,0,1.88.52,1.88,2.66S463.51,316.12,462.15,316.12Zm-8.06-18.2H414.37c-1.3,0-1.88-.52-1.88-2.67s.52-2.66,1.88-2.66h39.91c1.24,0,1.69.58,1.69,2.66S455.52,297.92,454.09,297.92Zm2.73-6.63h-2.41a1.27,1.27,0,0,1-1.3-1.3v-2.28a1.27,1.27,0,0,1,1.3-1.3h2.41a1.27,1.27,0,0,1,1.3,1.3V290A1.31,1.31,0,0,1,456.82,291.29Zm8.45,0h-2.41a1.31,1.31,0,0,1-1.3-1.3v-2.28a1.27,1.27,0,0,1,1.3-1.3h2.41a1.23,1.23,0,0,1,1.3,1.3V290A1.27,1.27,0,0,1,465.27,291.29Z"/><path class="cls-1" d="M524.87,302.86h-9a9,9,0,0,1-2-.2L480,295.9c-1.17-.26-1.76-.52-1.76-1.69s.26-3.57,1.56-3.57a2,2,0,0,1,.59.06l33.15,6.57a12.63,12.63,0,0,0,2.66.26h8.71c1.24,0,1.89.58,1.89,2.66S526.17,302.86,524.87,302.86Zm0,20.28h-9a9,9,0,0,1-2-.2L480,316.25c-1.17-.26-1.76-.52-1.76-1.76s.26-3.57,1.56-3.57a2,2,0,0,1,.59.06l33.15,6.63a11.93,11.93,0,0,0,2.66.2h8.71c1.24,0,1.89.58,1.89,2.66S526.17,323.14,524.87,323.14Zm0,20.22h-9a9,9,0,0,1-2-.2L480,336.46c-1.17-.25-1.76-.51-1.76-1.75,0-1,.26-3.51,1.56-3.51a2,2,0,0,1,.59.06l33.15,6.57a12,12,0,0,0,2.66.26h8.71c1.24,0,1.89.52,1.89,2.67S526.17,343.36,524.87,343.36Z"/><path class="cls-1" d="M549.18,322.49c-1.62,0-2.14-.39-2.14-1.5v-9a4.65,4.65,0,0,0-1-3.58l-1.89-2.6a2.09,2.09,0,0,1-.45-1c0-.91,2.08-2.21,2.86-2.21a1.44,1.44,0,0,1,1.17.78l2.27,3c1.43,1.88,1.43,2.34,1.43,4.81V321C551.39,322,550.87,322.49,549.18,322.49Zm36,7.67-7.93,10.66c-1.43,1.95-2.73,2.54-5.26,2.54H551.72c-1,0-1.56-.59-1.56-2.22s.45-2.2,1.56-2.2h19.17c1.24,0,2-.14,2.6-1.05l7.61-10.27c1-1.3,1-1.88,1-3.77v-20c0-.91.78-1.36,2.34-1.36s2.4.39,2.4,1.56V324.5C586.88,327,586.69,328.14,585.19,330.16Zm-20.73-7.67c-1.63,0-2.15-.39-2.15-1.5v-9a4.65,4.65,0,0,0-1-3.58l-1.88-2.6a2.12,2.12,0,0,1-.46-1c0-.91,2.08-2.21,2.86-2.21a1.43,1.43,0,0,1,1.17.78l2.28,3c1.43,1.88,1.43,2.34,1.43,4.81V321C566.67,322,566.15,322.49,564.46,322.49Z"/><path class="cls-1" d="M655.39,325.48l-11.31,14.76c-1.88,2.4-3.31,3.12-6.5,3.12H614.83c-1.23,0-1.88-.59-1.88-2.6s.58-2.67,1.88-2.67h21.71a3.61,3.61,0,0,0,3.32-1.56l10.79-14.11c1.17-1.56,1.36-2.34,1.36-4.74V299.87a2,2,0,0,0-2.21-2.21H626.21a2.29,2.29,0,0,0-2.08.84L614.05,311a3.81,3.81,0,0,1-2.79,1.43h-4.49c-1.3,0-1.88-.45-1.88-2.66s.45-2.67,1.88-2.67h3c.72,0,1-.06,1.69-1l9.95-12.42a4.16,4.16,0,0,1,3.25-1.36h27.49c3.51,0,5.27,1.75,5.27,5.39v20.8C657.41,321.58,657.28,323,655.39,325.48Z"/><path class="cls-1" d="M722.28,316.44l-2.8,4.29c-1.36,2.08-2.6,2.93-6,2.93H697.38c-1.23,0-1.75-.65-1.75-2.47,0-2,.45-2.73,1.75-2.73h14.76c1.69,0,2.34-.33,3-1.3l2.34-3.51a4.93,4.93,0,0,0,1-3.45v-3.7a2,2,0,0,0-2.28-2.21H681.07v24.89c0,7.42,1.88,8.91,8.9,8.91h30c1.3,0,2,.52,2,2.67s-.58,2.6-2,2.6H688.35c-9.17,0-12.68-3.19-12.68-12.74V304.29H672c-1.17,0-1.82-.59-1.82-2.86,0-1.95.65-2.47,1.82-2.47h3.7v-6c0-1.3.59-1.88,2.67-1.88s2.73.52,2.73,1.88v6h37.5c3.51,0,5.33,1.75,5.33,5.26v6.7A8.23,8.23,0,0,1,722.28,316.44Z"/><path class="cls-1" d="M785.26,326.91l-9.88,13.26c-1.82,2.41-3.31,3.19-6.76,3.19H738.4c-1.3,0-1.89-.59-1.89-2.6s.52-2.67,1.89-2.67h29.44a3.52,3.52,0,0,0,3.25-1.49l9.43-12.81c1.17-1.56,1.36-2.34,1.36-4.75V292.91c0-1.17.78-1.82,2.67-1.82s2.73.52,2.73,2V320C787.28,323.07,787.15,324.38,785.26,326.91ZM762.9,301.69H739.83c-1.3,0-2-.59-2-2.67s.58-2.66,2-2.66H762.9c1.3,0,2,.52,2,2.66S764.27,301.69,762.9,301.69Z"/><path class="cls-1" d="M851.89,325.54h-7.41a7,7,0,0,1-3.25-.58L813.54,312.8V342c0,1.3-.59,1.89-2.73,1.89s-2.67-.52-2.67-1.89V292.91c0-1.3.59-1.88,2.67-1.88s2.73.52,2.73,1.88v14.17l29.25,12.74a5,5,0,0,0,2,.46h7.15c1.3,0,2,.52,2,2.73S853.25,325.54,851.89,325.54Z"/><path class="cls-1" d="M915.46,330l-8.52,10.27c-1.88,2.28-3,3.06-6.24,3.06H872.1c-1.23,0-1.88-.59-1.88-2.6s.58-2.67,1.88-2.67h27.37a3.87,3.87,0,0,0,3.38-1.56l7.73-9.23c1.17-1.37,1.37-1.95,1.37-4.09v-8.13a2,2,0,0,0-2.15-2.21h-40c-1.49,0-2-.65-2-2.67s.45-2.66,2.08-2.66h42.31c3.51,0,5.2,1.82,5.2,5.33v11.05C917.34,327,917.15,328,915.46,330Zm-1.69-32.37H870.93c-1.23,0-1.88-.59-1.88-2.67s.58-2.66,1.88-2.66h42.84c1.3,0,1.88.58,1.88,2.66S915.13,297.66,913.77,297.66Z"/><path class="cls-1" d="M941.26,324.63,934.05,342c-.26,1-.65,1.56-1.63,1.56s-3.64-.59-3.64-1.88a2.55,2.55,0,0,1,.2-.91l7.15-17a16.14,16.14,0,0,0,1.56-7.73V293c0-1.3.52-2,2.66-2s2.73.59,2.73,2v22.88A18.47,18.47,0,0,1,941.26,324.63Zm38.48,14.76a5.17,5.17,0,0,1-4.94,4H963.43c-3.71,0-5.72-2.15-5.72-5.79V292.91c0-1.3.58-1.88,2.73-1.88s2.66.52,2.66,1.88v42.9a2.06,2.06,0,0,0,2.28,2.28h7a2.46,2.46,0,0,0,2.79-2.14l5.72-21.46a1.85,1.85,0,0,1,2-1.62c1.1,0,3.31.32,3.31,1.75a3.06,3.06,0,0,1-.13.72Z"/></g></svg>