<svg id="レイヤー_1" data-name="レイヤー 1" xmlns="http://www.w3.org/2000/svg" viewBox="0 0 720 260"><defs><style>.cls-1,.cls-2{fill:#002c76;}.cls-1{stroke:#002c76;stroke-miterlimit:10;}</style></defs><g id="_2_alt_a" data-name="2_alt_a"><polygon class="cls-1" points="85.5 -1 0.5 259 48.27 259 132.35 34 204.54 259 233.33 259 155.5 -1 85.5 -1"/><polygon class="cls-2" points="163.5 139.67 168.4 154.67 107.69 153.66 102.11 173.5 174.74 174.66 180.09 188.41 78.24 187.16 94.93 139.67 163.5 139.67"/><path class="cls-1" d="M289.83,213.69,287,218c-1.37,2.08-2.6,2.93-6.05,2.93H264.94c-1.24,0-1.76-.65-1.76-2.47,0-2,.46-2.73,1.76-2.73h14.75c1.69,0,2.34-.33,3-1.3L285,210.9a4.93,4.93,0,0,0,1-3.45v-3.7a2,2,0,0,0-2.27-2.21H248.62v24.89c0,7.42,1.89,8.91,8.91,8.91h30c1.3,0,1.95.52,1.95,2.67s-.59,2.6-1.95,2.6H255.9c-9.16,0-12.67-3.19-12.67-12.74V201.54h-3.71c-1.17,0-1.82-.59-1.82-2.86,0-2,.65-2.47,1.82-2.47h3.71v-6.05c0-1.3.58-1.88,2.66-1.88s2.73.52,2.73,1.88v6.05h37.51c3.51,0,5.33,1.75,5.33,5.26v6.7A8.19,8.19,0,0,1,289.83,213.69Z"/><path class="cls-1" d="M378.82,224.16l-9.88,13.26c-1.82,2.41-3.32,3.19-6.76,3.19H332c-1.3,0-1.88-.59-1.88-2.6s.51-2.67,1.88-2.67H361.4a3.53,3.53,0,0,0,3.25-1.49L374.07,221c1.17-1.56,1.37-2.34,1.37-4.75V190.16c0-1.17.78-1.82,2.66-1.82s2.73.52,2.73,2v26.85C380.83,220.32,380.7,221.62,378.82,224.16Zm-22.36-25.22H333.38c-1.3,0-1.95-.59-1.95-2.67s.59-2.66,1.95-2.66h23.08c1.3,0,2,.52,2,2.66S357.82,198.94,356.46,198.94Z"/><path class="cls-1" d="M471.44,222.79H464a7.05,7.05,0,0,1-3.25-.58l-27.69-12.16v29.19c0,1.3-.58,1.88-2.73,1.88s-2.66-.51-2.66-1.88V190.16c0-1.3.58-1.88,2.66-1.88s2.73.52,2.73,1.88v14.17l29.25,12.74a5.06,5.06,0,0,0,2,.46h7.15c1.3,0,1.95.52,1.95,2.73S472.81,222.79,471.44,222.79Z"/><path class="cls-1" d="M561,227.28l-8.51,10.27c-1.89,2.28-3,3.06-6.24,3.06h-28.6c-1.24,0-1.89-.59-1.89-2.6s.59-2.67,1.89-2.67H545a3.85,3.85,0,0,0,3.38-1.56l7.74-9.23c1.17-1.37,1.36-2,1.36-4.09v-8.13a1.94,1.94,0,0,0-2.14-2.21h-40c-1.5,0-2-.65-2-2.67s.45-2.66,2.08-2.66H557.7c3.51,0,5.2,1.82,5.2,5.33v11C562.9,224.29,562.7,225.26,561,227.28Zm-1.69-32.37H516.49c-1.24,0-1.89-.59-1.89-2.67s.59-2.66,1.89-2.66h42.83c1.3,0,1.89.58,1.89,2.66S560.69,194.91,559.32,194.91Z"/><path class="cls-1" d="M612.82,221.88l-7.22,17.36c-.26,1-.65,1.56-1.62,1.56s-3.65-.59-3.65-1.88a2.55,2.55,0,0,1,.2-.91l7.15-17a16.14,16.14,0,0,0,1.56-7.73v-23c0-1.3.52-1.95,2.67-1.95s2.73.59,2.73,1.95v22.88A18.59,18.59,0,0,1,612.82,221.88Zm38.48,14.76a5.18,5.18,0,0,1-4.94,4H635c-3.7,0-5.72-2.15-5.72-5.79V190.16c0-1.3.59-1.88,2.73-1.88s2.67.52,2.67,1.88v42.9a2.05,2.05,0,0,0,2.27,2.28h7a2.47,2.47,0,0,0,2.8-2.14l5.72-21.46a1.84,1.84,0,0,1,2-1.62c1.11,0,3.32.32,3.32,1.75a3.68,3.68,0,0,1-.13.72Z"/><path class="cls-1" d="M253.85,132.29H238.77a1.47,1.47,0,0,0-1.56,1l-5.13,19.77c-.65,2.6-2,3.51-4.75,3.51h-7.8c-1.3,0-1.88-.52-1.88-2.6s.52-2.67,1.88-2.67h5.85a1.85,1.85,0,0,0,2.08-1.63l5.2-19.76c.59-2.21,1.69-3,4.1-3h15.53c4.81,0,7.28-3.12,7.28-7.86v-6c0-1.17-.19-2.21-2.21-2.21H213.94c-1.3,0-1.88-.59-1.88-2.67s.52-2.66,1.88-2.66h45.7c4.22,0,5.26,1.3,5.26,5.2v9.68C264.9,126.05,262.24,132.29,253.85,132.29Z"/><path class="cls-1" d="M340.17,156.61H328.86c-1.3,0-1.88-.59-1.88-2.6s.52-2.67,1.88-2.67h8.58c1.89,0,2.47-1,2.47-2.73V120.07a1.94,1.94,0,0,0-2.21-2.21H314.11v13c0,4-.13,5.72-2.21,9.43L303,156.21c-.32.53-.65.85-1.17.85-1,0-3.7-1.49-3.7-2.6a2.22,2.22,0,0,1,.39-1.1L307,137.88c1.56-2.79,1.69-4.16,1.69-7.8V117.86H297.53c-1.23,0-1.88-.52-1.88-2.66s.58-2.67,1.88-2.67h11.18v-6.69c0-1.37.52-1.89,2.73-1.89s2.67.59,2.67,1.89v6.69H340c3.57,0,5.33,1.76,5.33,5.2V151C345.31,154.72,343.42,156.61,340.17,156.61Z"/><path class="cls-1" d="M430.85,129.37H415.64v8.19a9.66,9.66,0,0,1-1.89,6.24l-5.91,9.62c-1.5,2.41-2.8,3.05-6.18,3.05H384.05c-1.24,0-1.89-.51-1.89-2.53s.59-2.66,1.89-2.66h16.44c1.69,0,2.47-.33,3.12-1.43l5.53-9.17a5.82,5.82,0,0,0,1.1-3.77v-7.54h-29c-1.23,0-1.88-.59-1.88-2.67S380,124,381.25,124h49.6c1.3,0,1.88.52,1.88,2.66S432.21,129.37,430.85,129.37Zm-8.06-18.2H383.07c-1.3,0-1.88-.52-1.88-2.67s.52-2.66,1.88-2.66H423c1.24,0,1.69.58,1.69,2.66S424.22,111.17,422.79,111.17Zm2.73-6.63h-2.41a1.27,1.27,0,0,1-1.3-1.3V101a1.27,1.27,0,0,1,1.3-1.3h2.41a1.27,1.27,0,0,1,1.3,1.3v2.28A1.31,1.31,0,0,1,425.52,104.54Zm8.45,0h-2.41a1.31,1.31,0,0,1-1.3-1.3V101a1.27,1.27,0,0,1,1.3-1.3H434a1.23,1.23,0,0,1,1.3,1.3v2.28A1.27,1.27,0,0,1,434,104.54Z"/><path class="cls-1" d="M512.42,116.11h-9a9,9,0,0,1-1.95-.2l-33.93-6.76c-1.17-.26-1.76-.52-1.76-1.69s.26-3.57,1.56-3.57a2,2,0,0,1,.59.06l33.15,6.57a12.63,12.63,0,0,0,2.66.26h8.71c1.24,0,1.89.58,1.89,2.66S513.72,116.11,512.42,116.11Zm0,20.28h-9a9,9,0,0,1-1.95-.2l-33.93-6.69c-1.17-.26-1.76-.52-1.76-1.76s.26-3.57,1.56-3.57a2,2,0,0,1,.59.06l33.15,6.63a11.93,11.93,0,0,0,2.66.2h8.71c1.24,0,1.89.58,1.89,2.66S513.72,136.39,512.42,136.39Zm0,20.22h-9a9,9,0,0,1-1.95-.2l-33.93-6.7c-1.17-.25-1.76-.51-1.76-1.75,0-1,.26-3.51,1.56-3.51a2,2,0,0,1,.59.06l33.15,6.57a12,12,0,0,0,2.66.26h8.71c1.24,0,1.89.52,1.89,2.67S513.72,156.61,512.42,156.61Z"/><path class="cls-1" d="M555.58,135.74c-1.62,0-2.14-.39-2.14-1.5v-9a4.65,4.65,0,0,0-1-3.58l-1.89-2.6a2.09,2.09,0,0,1-.45-1c0-.91,2.08-2.21,2.86-2.21a1.44,1.44,0,0,1,1.17.78l2.27,3c1.43,1.88,1.43,2.34,1.43,4.81v9.81C557.79,135.29,557.27,135.74,555.58,135.74Zm36,7.67-7.93,10.66c-1.43,2-2.73,2.54-5.26,2.54H558.12c-1,0-1.56-.59-1.56-2.22s.45-2.2,1.56-2.2h19.17c1.24,0,2-.14,2.6-1.05l7.61-10.26c1-1.31,1-1.89,1-3.78v-20c0-.91.78-1.36,2.34-1.36s2.4.39,2.4,1.56v20.47C593.28,140.22,593.09,141.39,591.59,143.41Zm-20.73-7.67c-1.63,0-2.15-.39-2.15-1.5v-9a4.65,4.65,0,0,0-1-3.58l-1.88-2.6a2.12,2.12,0,0,1-.46-1c0-.91,2.08-2.21,2.86-2.21a1.43,1.43,0,0,1,1.17.78l2.28,3c1.43,1.88,1.43,2.34,1.43,4.81v9.81C573.07,135.29,572.55,135.74,570.86,135.74Z"/><path class="cls-1" d="M680.64,138.73l-11.31,14.76c-1.88,2.4-3.31,3.12-6.5,3.12H640.08c-1.23,0-1.88-.59-1.88-2.6s.58-2.67,1.88-2.67h21.71a3.61,3.61,0,0,0,3.32-1.56l10.79-14.11c1.17-1.56,1.36-2.34,1.36-4.74V113.12a2,2,0,0,0-2.21-2.21H651.46a2.29,2.29,0,0,0-2.08.84L639.3,124.23a3.81,3.81,0,0,1-2.79,1.43H632c-1.3,0-1.88-.45-1.88-2.66s.45-2.67,1.88-2.67h3c.72,0,1-.06,1.69-1l9.95-12.42a4.16,4.16,0,0,1,3.25-1.36h27.49c3.51,0,5.27,1.75,5.27,5.39v20.8C682.66,134.83,682.53,136.26,680.64,138.73Z"/><path class="cls-1" d="M250.68,24.28h-24.5v5.59h18.65c2.73,0,4.16,1.43,4.16,4.16V51.39c0,2.73-1.43,4.16-4.16,4.16H226.18V71.47c0,1.57-.72,2.35-2.73,2.35s-2.73-.78-2.73-2.35V55.55h-.39L199.46,71.93a2.09,2.09,0,0,1-1.3.59c-1.17,0-2.47-2-2.47-3.13a2.12,2.12,0,0,1,1-1.62l15.66-12.22H202.06c-2.73,0-4.16-1.43-4.16-4.16V34c0-2.73,1.43-4.16,4.16-4.16h18.66V24.28H196.08c-1.36,0-2-.58-2-2.34s.65-2.34,2-2.34h24.64v-2c0-1.56.65-2.41,2.73-2.41s2.73.85,2.73,2.41v2h24.5c1.37,0,2.08.59,2.08,2.34S252.05,24.28,250.68,24.28Zm-30,10.27H203.17V40.4h17.55Zm0,10.4H203.17V50.8h17.55Zm22.94-10.4H226.18V40.4h17.48Zm0,10.4H226.18V50.8h17.48Zm6.76,26.26c-.65.85-1.23,1.24-1.82,1.24a2.09,2.09,0,0,1-1.36-.58l-12.09-9.75a2,2,0,0,1-.91-1.57c0-1.1,1.49-3,2.66-3a2.38,2.38,0,0,1,1.37.65l12,9.69a2.13,2.13,0,0,1,.91,1.56A2.79,2.79,0,0,1,250.42,71.21Z"/><path class="cls-1" d="M271.74,38c-.45,1.36-1,2-1.88,2a2.64,2.64,0,0,1-1-.2l-8.06-2.6c-1-.32-1.56-.84-1.56-1.82,0-1.23.72-3.18,2.15-3.18a2.56,2.56,0,0,1,.91.19l8,2.54c1,.32,1.63.91,1.63,1.88A4.5,4.5,0,0,1,271.74,38Zm.33,11.18-7.35,23.08c-.32,1-.84,1.62-1.82,1.62-1.3,0-3.31-.78-3.31-2.27a2.63,2.63,0,0,1,.19-1l7.35-23.14c.32-1,.84-1.63,1.88-1.63,1.3,0,3.25.78,3.25,2.35A2.61,2.61,0,0,1,272.07,49.18Zm-.26-26.39c-.39,1.23-1,1.75-1.82,1.75a3.19,3.19,0,0,1-1-.19l-7.22-2.93c-1-.39-1.43-.91-1.43-1.82,0-1.17.72-3.18,2.08-3.18a3.19,3.19,0,0,1,1,.19l7.22,3a1.93,1.93,0,0,1,1.43,1.89A3.94,3.94,0,0,1,271.81,22.79Zm43.74.19H282.14l-2.6,8.71c-.32,1-.91,1.63-1.88,1.63-1.3,0-3.38-.65-3.38-2.08a2.63,2.63,0,0,1,.19-1l4.23-14a2,2,0,0,1,2.08-1.69c1.23,0,3.18.46,3.18,2a2.63,2.63,0,0,1-.19,1l-.13.52h31.91c1.43,0,2.21.65,2.21,2.53S317,23,315.55,23Zm.07,28.6h-1.37l-.65,20.68a2.24,2.24,0,0,1-2.47,1.88,2.11,2.11,0,0,1-2.34-1.82l.07-2.6H282.14c-2.6,0-4.29-1.5-4.16-4l.85-14.17h-1.5c-1.43,0-2.08-.58-2.08-2.4s.65-2.47,2.08-2.47h1.82L280,33.38a4.67,4.67,0,0,1,4.81-4.61h25.67c2.67,0,4.42,1.43,4.36,4.09l-.46,13.85h1.24c1.43,0,2.14.65,2.14,2.47S317.05,51.58,315.62,51.58Zm-31.92,0-.84,13.33h10.46l.78-13.33Zm1.11-18.07L284,46.71h10.47l.78-13.2Zm13.91,18.07L298,64.91h11.05l.39-13.33Zm1-18.07L299,46.71h10.6l.39-13.2Z"/><path class="cls-1" d="M376.07,73H330.83A4.83,4.83,0,0,1,326,68.1V20.77c0-2.73,2.15-4.48,4.88-4.48h45.24c2.73,0,4.87,1.75,4.87,4.48V68.1A4.82,4.82,0,0,1,376.07,73ZM376,20.9H331V68.42h45Zm-6.82,41.28H337.72c-1.37,0-2-.59-2-2.34s.65-2.34,2-2.34h13.39V46.25h-11c-1.3,0-1.95-.52-1.95-2.27s.65-2.34,1.95-2.34h11V32H338.43c-1.36,0-2-.58-2-2.34s.65-2.34,2-2.34h30c1.37,0,2.08.59,2.08,2.34S369.83,32,368.46,32H355.85v9.69h10.92c1.3,0,2,.58,2,2.34s-.72,2.27-2,2.27H355.85V57.5h13.33c1.36,0,2.08.58,2.08,2.34S370.54,62.18,369.18,62.18Zm-3.58-6a1.49,1.49,0,0,1-1.43-1l-2.08-4.48a1.81,1.81,0,0,1-.26-.91c0-1,1.56-1.76,2.47-1.76a1.58,1.58,0,0,1,1.5,1.11l2.08,4.42a1.81,1.81,0,0,1,.26.91C368.14,55.42,366.51,56.13,365.6,56.13Z"/><path class="cls-1" d="M445.55,72.91H391.21c-1.43,0-2.14-.59-2.14-2.54s.71-2.54,2.14-2.54h33.28l7.74-33.15a2,2,0,0,1,2.21-1.88c1.23,0,3.18.45,3.18,2a4.2,4.2,0,0,1-.13.85L430,67.83h15.6c1.43,0,2.21.66,2.21,2.54S447,72.91,445.55,72.91Zm-2-45.18H393.23c-1.5,0-2.21-.59-2.21-2.54s.71-2.6,2.21-2.6h22.55V17.52c0-1.56.65-2.34,2.67-2.34s2.66.78,2.66,2.34v5.07h22.43c1.49,0,2.27.65,2.27,2.6S445,27.73,443.54,27.73ZM404.86,63.15c-1.43,0-2-.65-2.21-2l-3.57-26.07c0-1.82,1.75-2.21,3.25-2.21s1.95.65,2.14,2L408,60.42c0,.2.07.39.07.53C408.05,62.77,406.36,63.15,404.86,63.15Z"/><path class="cls-1" d="M510.36,34.88H485.14L460.76,72.06a2.25,2.25,0,0,1-1.82,1.23c-1.23,0-3.57-1.49-3.57-2.79a2.7,2.7,0,0,1,.52-1.43l22.42-34.19h-21.9c-1.56,0-2.34-.65-2.34-2.73s.78-2.8,2.34-2.8h24.18V17.72c0-1.69.71-2.54,2.86-2.54s2.86.85,2.86,2.54V29.35h24.05c1.56,0,2.4.72,2.4,2.8S511.92,34.88,510.36,34.88ZM508,73.36c-.72,0-1.24-.45-1.76-1.24L489,44.43a2.58,2.58,0,0,1-.46-1.43c0-1.3,2.08-2.73,3.38-2.73.72,0,1.24.46,1.76,1.24L511,69.07a2.65,2.65,0,0,1,.45,1.43C511.46,71.8,509.32,73.36,508,73.36Z"/><path class="cls-1" d="M575.16,37.22c-1.95,0-2.53-.72-2.53-2.21v-5.4h-48.3V35c0,1.49-.65,2.21-2.6,2.21S519.2,36.5,519.2,35V29.09a4.19,4.19,0,0,1,4.48-4.48h38.74l2.8-7.48a2.05,2.05,0,0,1,2-1.62c1.17,0,3.12.65,3.12,2a3.19,3.19,0,0,1-.19,1L568,24.61h5.33a4.19,4.19,0,0,1,4.48,4.48V35C577.76,36.5,577.11,37.22,575.16,37.22Zm.39,20.41h-24v12c0,2.73-1.43,4.16-4.16,4.16H536.1c-1.43,0-2.15-.58-2.15-2.54s.72-2.53,2.15-2.53h10.07V57.63H521.34c-1.43,0-2.14-.59-2.14-2.47s.71-2.54,2.14-2.54h24.83V49.31a3.84,3.84,0,0,1,1.69-3.06L558,40.92H531.42c-1.43,0-2.08-.58-2.08-2.4s.65-2.47,2.08-2.47H561c3,0,4.55,1.88,4.55,3.77a3.47,3.47,0,0,1-1.75,3l-12.22,6.76v3h24c1.43,0,2.21.65,2.21,2.54S577,57.63,575.55,57.63ZM529.92,24.41A1.86,1.86,0,0,1,528,22.85l-1.3-4.09a4.2,4.2,0,0,1-.13-.85c0-1.43,1.82-1.95,3-1.95a1.89,1.89,0,0,1,1.95,1.56l1.3,4a2.56,2.56,0,0,1,.19.91C533,23.89,531.09,24.41,529.92,24.41Zm17.23,0c-1,0-1.56-.52-1.89-1.56l-1.43-4.68a4.8,4.8,0,0,1-.13-.84c0-1.43,1.89-1.95,3.06-1.95s1.56.52,1.88,1.56L550,21.62a4.8,4.8,0,0,1,.13.84C550.14,23.89,548.32,24.41,547.15,24.41Z"/><path class="cls-1" d="M600.58,51.19a1.54,1.54,0,0,1-1.37-.9l-3.57-6.18V71.74c0,1.36-.65,2-2.41,2s-2.34-.65-2.34-2V41.31l-3.7,15.41c-.2.84-.59,1.36-1.43,1.36-1.11,0-2.67-.58-2.67-1.88a2.25,2.25,0,0,1,.07-.65l5.2-20.93a1.58,1.58,0,0,1,1.49-1.43,2,2,0,0,1,1,.26V30.13h-4.74c-1.43,0-2.15-.58-2.15-2.47s.72-2.53,2.15-2.53h4.74V17.2c0-1.37.59-2.08,2.34-2.08s2.41.71,2.41,2.08v7.93h4.48c1.43,0,2.21.65,2.21,2.53s-.78,2.47-2.21,2.47h-4.48V40a2.43,2.43,0,0,1,1.17-.39c.52,0,.91.33,1.3.91l4.68,7.61a1.89,1.89,0,0,1,.39,1.1C603.18,50.22,601.49,51.19,600.58,51.19Zm16.77-5.33A1.26,1.26,0,0,1,616,44.63l-.13-.78H605.06c-1,0-1.69-.52-1.69-1.56V40.86a4.66,4.66,0,0,1,.72-2.21l3.9-6.18-3.51-1.17a1.88,1.88,0,0,1-1.24-1.69V27.86a5.17,5.17,0,0,1,.65-2.21l5.53-9.56a1.42,1.42,0,0,1,1.3-.71,2.1,2.1,0,0,1,2.21,1.88,1.06,1.06,0,0,1-.13.65l-5.85,10,3.31,1,3.84-6.11a1.45,1.45,0,0,1,1.3-.65,2.2,2.2,0,0,1,2.21,1.95,1.34,1.34,0,0,1-.2.72l-9.16,14.88h6.89l-.91-5.59c0-1.17,1.1-1.49,2.08-1.49s1.3.45,1.43,1.36l1.69,10v.39C619.43,45.6,618.32,45.86,617.35,45.86Zm23.46,7.35h-9.94L634.7,60l2.67-2.6a2.07,2.07,0,0,1,1.23-.65,3,3,0,0,1,2.34,2.47,1.91,1.91,0,0,1-.71,1.3l-3.32,3.25,4,7.09a1.93,1.93,0,0,1,.33,1.1c0,1.11-1.82,2.15-2.8,2.15A1.74,1.74,0,0,1,637,73L633.6,67l-5.85,5.79a1.68,1.68,0,0,1-1.17.58,3.17,3.17,0,0,1-2.28-2.47,1.9,1.9,0,0,1,.65-1.23l6.5-6.44-5.65-10H614.16l-2,6.24,7.67,7.6a1.92,1.92,0,0,1,.71,1.31,3.21,3.21,0,0,1-2.47,2.47,1.78,1.78,0,0,1-1.23-.65l-6.11-6.12-2.67,8.39a1.6,1.6,0,0,1-1.62,1.37c-1,0-2.8-.59-2.8-1.82a4.9,4.9,0,0,1,.13-.85l5.72-17.94h-4.22c-1.3,0-1.89-.52-1.89-2.21s.59-2.28,1.89-2.28h18l-2.47-4.35a6.12,6.12,0,0,1-.65-2.41V17.13c0-1.3.52-1.95,2.21-1.95s2.21.65,2.21,1.95V42.22l3.71,6.5h5.39L633.34,47c0-1.24,1.3-1.63,2.27-1.63s1.43.52,1.63,1.43l.39,1.95h3.18c1.3,0,2,.59,2,2.28S642.11,53.21,640.81,53.21Zm.07-7.41a1.29,1.29,0,0,1-1.43-1.24l-.13-.71H628.2c-1,0-1.69-.52-1.69-1.56V40.86a4.66,4.66,0,0,1,.72-2.21l4-6.18-3.57-1.17a1.88,1.88,0,0,1-1.24-1.69V27.86a5.17,5.17,0,0,1,.65-2.21l5.53-9.56a1.42,1.42,0,0,1,1.3-.71,2.1,2.1,0,0,1,2.21,1.88,1.06,1.06,0,0,1-.13.65l-5.85,10,3.31,1,3.84-6.11a1.45,1.45,0,0,1,1.3-.65,2.2,2.2,0,0,1,2.21,1.95,1.34,1.34,0,0,1-.2.72l-9.16,14.88h7.21l-1-6c0-1.11,1.17-1.37,2.08-1.37a1.36,1.36,0,0,1,1.49,1.37L643,44v.39C643,45.54,641.85,45.8,640.88,45.8Z"/><path class="cls-1" d="M668.11,51c-.52,0-.91-.33-1.3-.91l-4.61-7V71.67c0,1.43-.65,2.08-2.47,2.08s-2.47-.65-2.47-2.08V40l-4.68,17c-.26.91-.72,1.43-1.56,1.43-1.11,0-2.93-.71-2.93-2a5,5,0,0,1,.13-.85l5.92-20.8c.26-.91.71-1.43,1.56-1.43a4.37,4.37,0,0,1,1.56.39V30.13h-6c-1.43,0-2.14-.58-2.14-2.47s.71-2.53,2.14-2.53h6V17.26c0-1.43.58-2.14,2.47-2.14s2.47.71,2.47,2.14v7.87h5.59c1.43,0,2.21.65,2.21,2.53s-.78,2.47-2.21,2.47H662.2v9.36c.06,0,.06-.06.13-.06a2.7,2.7,0,0,1,1.43-.52c.52,0,.91.32,1.3.91l5.26,7.93a2.07,2.07,0,0,1,.39,1.1C670.71,49.89,669,51,668.11,51Zm38.16,15.93h-.78v4.74c0,1.43-.65,2.08-2.41,2.08s-2.4-.65-2.4-2.08V66.93H677.54v4.81c0,1.36-.59,2-2.34,2s-2.34-.65-2.34-2V66.93h-.65c-1.24,0-1.82-.52-1.82-2.15s.58-2.15,1.82-2.15h.65V48.07c0-2.73,1.75-4.16,4.48-4.16H687V40.08H672.34c-1.24,0-1.82-.52-1.82-2.15s.58-2.14,1.82-2.14h5.52V31.24h-2.73c-1.23,0-1.82-.52-1.82-2.08S673.9,27,675.13,27h2.73V22.4h-4.48c-1.24,0-1.82-.52-1.82-2.15s.58-2.14,1.82-2.14h4.48v-.85c0-1.36.59-2.08,2.34-2.08s2.41.72,2.41,2.08v.85h13.06v-.85c0-1.36.59-2.08,2.34-2.08s2.41.72,2.41,2.08v.85h4.42c1.23,0,1.88.58,1.88,2.14s-.65,2.15-1.88,2.15h-4.42V27h2.66c1.24,0,1.89.59,1.89,2.15s-.65,2.08-1.89,2.08h-2.66v4.55h5.46c1.23,0,1.88.58,1.88,2.14s-.65,2.15-1.88,2.15H691.19v3.83H701c2.73,0,4.49,1.43,4.49,4.16V62.63h.78c1.23,0,1.88.59,1.88,2.15S707.5,66.93,706.27,66.93ZM687,48.14h-9.42v5.2H687Zm0,9.36h-9.42v5.13H687Zm8.71-35.1H682.61V27h13.06Zm0,8.84H682.61v4.55h13.06Zm5,16.9h-9.49v5.2h9.49Zm0,9.36h-9.49v5.13h9.49Z"/></g></svg>