<?xml version="1.0" encoding="utf-8"?>
<!-- Generator: Adobe Illustrator 25.4.1, SVG Export Plug-In . SVG Version: 6.00 Build 0)  -->
<svg version="1.1" id="レイヤー_1" xmlns="http://www.w3.org/2000/svg" xmlns:xlink="http://www.w3.org/1999/xlink" x="0px"
	 y="0px" viewBox="0 0 719 255" style="enable-background:new 0 0 719 255;" xml:space="preserve">
<style type="text/css">
	.st0{fill:#002C76;stroke:#002C76;stroke-miterlimit:10;}
	.st1{fill:#002C76;}
</style>
<g id="_2_alt_b">
	<polygon class="st0" points="85,0 0,260 47.8,260 131.9,35 204,260 232.8,260 155,0 	"/>
	<polygon class="st1" points="163,140.7 167.9,155.7 107.2,154.7 101.6,174.5 174.2,175.7 179.6,189.4 77.7,188.2 94.4,140.7 	"/>
	<path class="st0" d="M258.7,18.3h-24.5v5.6h18.7c2.7,0,4.2,1.4,4.2,4.2v17.4c0,2.7-1.4,4.2-4.2,4.2h-18.7v15.9
		c0,1.6-0.7,2.3-2.7,2.3s-2.7-0.8-2.7-2.3V49.5h-0.4l-20.9,16.4c-0.4,0.3-0.8,0.6-1.3,0.6c-1.2,0-2.5-2-2.5-3.1
		c0.1-0.7,0.4-1.3,1-1.6l15.7-12.2h-10.3c-2.7,0-4.2-1.4-4.2-4.2V28c0-2.7,1.4-4.2,4.2-4.2h18.6v-5.6h-24.6c-1.4,0-2-0.6-2-2.3
		s0.6-2.3,2-2.3h24.6v-2c0-1.6,0.6-2.4,2.7-2.4s2.7,0.9,2.7,2.4v2h24.5c1.4,0,2.1,0.6,2.1,2.3S260.1,18.3,258.7,18.3z M228.7,28.5
		h-17.5v5.9h17.6L228.7,28.5z M228.7,38.9h-17.5v5.8h17.6L228.7,38.9z M251.7,28.5h-17.5v5.9h17.5L251.7,28.5z M251.7,38.9h-17.5
		v5.8h17.5L251.7,38.9z M258.4,65.2c-0.6,0.8-1.2,1.2-1.8,1.2c-0.5,0-1-0.2-1.4-0.6l-12.1-9.7c-0.5-0.3-0.9-0.9-0.9-1.6
		c0-1.1,1.5-3,2.7-3c0.5,0.1,1,0.3,1.4,0.7l12,9.7c0.5,0.4,0.9,0.9,0.9,1.6C259.2,64.1,258.9,64.7,258.4,65.2L258.4,65.2z"/>
	<path class="st0" d="M279.8,32c-0.5,1.4-1,2-1.9,2c-0.3,0-0.7-0.1-1-0.2l-8.1-2.6c-1-0.3-1.6-0.8-1.6-1.8c0-1.2,0.7-3.2,2.1-3.2
		c0.3,0,0.6,0.1,0.9,0.2l8,2.5c1,0.3,1.6,0.9,1.6,1.9C280,31.2,279.9,31.6,279.8,32z M280.1,43.2l-7.3,23.1c-0.3,1-0.9,1.6-1.8,1.6
		c-1.3,0-3.3-0.8-3.3-2.3c0-0.3,0.1-0.7,0.2-1l7.4-23.1c0.3-1,0.9-1.6,1.9-1.6c1.3,0,3.2,0.8,3.2,2.3
		C280.3,42.5,280.2,42.9,280.1,43.2z M279.9,16.8c-0.4,1.2-1,1.8-1.8,1.8c-0.3,0-0.7-0.1-1-0.2l-7.2-2.9c-1-0.4-1.4-0.9-1.4-1.8
		c0-1.2,0.7-3.2,2.1-3.2c0.3,0,0.7,0.1,1,0.2l7.2,3c0.9,0.2,1.4,1,1.4,1.9C280.1,15.9,280,16.4,279.9,16.8z M323.6,17h-33.4
		l-2.6,8.7c-0.3,1-0.9,1.6-1.9,1.6c-1.3,0-3.4-0.6-3.4-2.1c0-0.3,0.1-0.7,0.2-1l4.2-14c0.2-1,1.1-1.7,2.1-1.7c1.2,0,3.2,0.5,3.2,2
		c0,0.3-0.1,0.7-0.2,1l-0.1,0.5h31.9c1.4,0,2.2,0.6,2.2,2.5S325,17,323.6,17L323.6,17z M323.7,45.6h-1.4l-0.6,20.7
		c-0.2,1.2-1.3,2-2.5,1.9c-1.1,0.1-2.2-0.7-2.3-1.8l0.1-2.6h-26.7c-2.6,0-4.3-1.5-4.2-4l0.8-14.2h-1.5c-1.4,0-2.1-0.6-2.1-2.4
		s0.6-2.5,2.1-2.5h1.8l0.8-13.3c0-2.6,2.1-4.6,4.7-4.6c0,0,0.1,0,0.1,0h25.7c2.7,0,4.4,1.4,4.4,4.1l-0.5,13.9h1.2
		c1.4,0,2.1,0.7,2.1,2.5S325.1,45.6,323.7,45.6L323.7,45.6z M291.8,45.6l-0.9,13.3h10.5l0.8-13.3H291.8z M292.9,27.5L292,40.7h10.5
		l0.8-13.2L292.9,27.5z M306.8,45.6l-0.7,13.3h11l0.4-13.3H306.8z M307.8,27.5l-0.7,13.2h10.6l0.4-13.2H307.8z"/>
	<path class="st0" d="M384.1,67h-45.2c-2.7,0-4.9-2.1-4.9-4.8c0,0,0-0.1,0-0.1V14.8c0-2.7,2.1-4.5,4.9-4.5h45.2
		c2.7,0,4.9,1.8,4.9,4.5v47.3c0,2.7-2.1,4.9-4.8,4.9C384.2,67,384.2,67,384.1,67z M384.1,14.9H339v47.5h45L384.1,14.9z M377.2,56.2
		h-31.5c-1.4,0-2-0.6-2-2.3s0.6-2.3,2-2.3h13.4V40.2h-11c-1.3,0-2-0.5-2-2.3s0.6-2.3,2-2.3h11V26h-12.7c-1.4,0-2-0.6-2-2.3
		s0.6-2.3,2-2.3h30c1.4,0,2.1,0.6,2.1,2.3s-0.7,2.3-2,2.3h-12.6v9.7h10.9c1.3,0,2,0.6,2,2.3s-0.7,2.3-2,2.3h-10.9v11.2h13.3
		c1.4,0,2.1,0.6,2.1,2.3S378.6,56.2,377.2,56.2L377.2,56.2z M373.7,50.2c-0.6,0-1.2-0.4-1.4-1l-2.1-4.5c-0.2-0.3-0.3-0.6-0.3-0.9
		c0-1,1.6-1.8,2.5-1.8c0.7,0,1.3,0.5,1.5,1.1l2.1,4.4c0.2,0.3,0.3,0.6,0.3,0.9C376.2,49.4,374.6,50.1,373.7,50.2L373.7,50.2z"/>
	<path class="st0" d="M453.6,66.9h-54.3c-1.4,0-2.1-0.6-2.1-2.5s0.7-2.5,2.1-2.5h33.3l7.7-33.2c0.1-1.1,1-1.9,2.1-1.9
		c0,0,0.1,0,0.1,0c1.2,0,3.2,0.5,3.2,2c0,0.3-0.1,0.6-0.1,0.9L438,61.8h15.6c1.4,0,2.2,0.7,2.2,2.5C455.8,66.2,455,66.9,453.6,66.9z
		 M451.6,21.7h-50.3c-1.5,0-2.2-0.6-2.2-2.5s0.7-2.6,2.2-2.6h22.6v-5.1c0-1.6,0.6-2.3,2.7-2.3s2.7,0.8,2.7,2.3v5.1h22.4
		c1.5,0,2.3,0.6,2.3,2.6S453.1,21.7,451.6,21.7L451.6,21.7z M412.9,57.1c-1.4,0-2-0.7-2.2-2l-3.6-26.1c0-1.8,1.8-2.2,3.2-2.2
		s2,0.6,2.1,2l3.5,25.5c0,0.2,0.1,0.4,0.1,0.5C416.1,56.8,414.4,57.1,412.9,57.1z"/>
	<path class="st0" d="M518.4,28.9h-25.2l-24.4,37.2c-0.4,0.7-1,1.2-1.8,1.2c-1.2,0-3.6-1.5-3.6-2.8c0-0.5,0.2-1,0.5-1.4l22.4-34.2
		h-21.9c-1.6,0-2.3-0.6-2.3-2.7s0.8-2.8,2.3-2.8h24.2V11.7c0-1.7,0.7-2.5,2.9-2.5s2.9,0.9,2.9,2.5v11.6h24c1.6,0,2.4,0.7,2.4,2.8
		S520,28.9,518.4,28.9z M516.1,67.4c-0.7,0-1.2-0.4-1.8-1.2l-17.2-27.7c-0.3-0.4-0.4-0.9-0.5-1.4c0-1.3,2.1-2.7,3.4-2.7
		c0.7,0,1.2,0.5,1.8,1.2l17.3,27.6c0.3,0.4,0.5,0.9,0.5,1.4C519.5,65.8,517.4,67.4,516.1,67.4L516.1,67.4z"/>
	<path class="st0" d="M583.2,31.2c-2,0-2.5-0.7-2.5-2.2v-5.4h-48.3V29c0,1.5-0.7,2.2-2.6,2.2s-2.5-0.7-2.5-2.2v-5.9
		c-0.2-2.3,1.6-4.3,3.9-4.5c0.2,0,0.4,0,0.6,0h38.7l2.8-7.5c0.2-0.9,1-1.6,2-1.6c1.2,0,3.1,0.6,3.1,2c0,0.3-0.1,0.7-0.2,1l-2.2,6
		h5.3c2.3-0.2,4.3,1.6,4.5,3.9c0,0.2,0,0.4,0,0.6v6C585.8,30.5,585.2,31.2,583.2,31.2z M583.6,51.6h-24v12c0,2.7-1.4,4.2-4.2,4.2
		h-11.3c-1.4,0-2.1-0.6-2.1-2.5s0.7-2.5,2.1-2.5h10.1v-11h-24.8c-1.4,0-2.2-0.6-2.2-2.5s0.7-2.5,2.2-2.5h24.8v-3.4
		c0-1.2,0.7-2.4,1.7-3.1l10.1-5.3h-26.6c-1.4,0-2.1-0.6-2.1-2.4s0.7-2.5,2.1-2.5H569c3,0,4.5,1.9,4.5,3.8c0,1.2-0.7,2.4-1.8,3
		l-12.2,6.8v3h24c1.4,0,2.2,0.7,2.2,2.5S585,51.6,583.6,51.6z M538,18.4c-0.9,0-1.7-0.6-1.9-1.6l-1.3-4.1c-0.1-0.3-0.1-0.6-0.1-0.9
		c0-1.4,1.8-1.9,3-1.9c1-0.1,1.8,0.6,2,1.6l1.3,4c0.1,0.3,0.2,0.6,0.2,0.9C541.1,17.9,539.2,18.4,538,18.4z M555.2,18.4
		c-1,0-1.6-0.5-1.9-1.6l-1.4-4.7c-0.1-0.3-0.1-0.6-0.1-0.8c0-1.4,1.9-1.9,3-1.9s1.6,0.5,1.9,1.6l1.4,4.7c0.1,0.3,0.1,0.6,0.1,0.8
		C558.2,17.9,556.4,18.4,555.2,18.4L555.2,18.4z"/>
	<path class="st0" d="M608.6,45.2c-0.6,0-1.1-0.4-1.4-0.9l-3.6-6.2v27.6c0,1.4-0.7,2-2.4,2s-2.3-0.7-2.3-2V35.3l-3.7,15.4
		c-0.2,0.8-0.6,1.4-1.4,1.4c-1.1,0-2.7-0.6-2.7-1.9c0-0.2,0-0.4,0.1-0.7l5.2-20.9c0.1-0.8,0.7-1.4,1.5-1.4c0.4,0,0.7,0.1,1,0.3v-3.3
		h-4.7c-1.4,0-2.2-0.6-2.2-2.5s0.7-2.5,2.2-2.5h4.8v-7.9c0-1.4,0.6-2.1,2.3-2.1s2.4,0.7,2.4,2.1v7.9h4.5c1.4,0,2.2,0.6,2.2,2.5
		s-0.8,2.5-2.2,2.5h-4.5V34c0.4-0.2,0.8-0.4,1.2-0.4c0.5,0,0.9,0.3,1.3,0.9l4.7,7.6c0.2,0.3,0.4,0.7,0.4,1.1
		C611.2,44.2,609.5,45.2,608.6,45.2z M625.4,39.9c-0.7,0.1-1.3-0.4-1.4-1.1c0,0,0-0.1,0-0.1l-0.1-0.8h-10.8c-1,0-1.7-0.5-1.7-1.6
		v-1.4c0-0.8,0.3-1.5,0.7-2.2l3.9-6.2l-3.5-1.2c-0.7-0.3-1.2-0.9-1.2-1.7v-1.8c0-0.8,0.3-1.5,0.7-2.2l5.5-9.6
		c0.3-0.5,0.8-0.7,1.3-0.7c1.1-0.1,2.1,0.8,2.2,1.9c0,0.2,0,0.5-0.1,0.6l-5.8,10l3.3,1l3.8-6.1c0.3-0.4,0.8-0.7,1.3-0.6
		c1.1,0,2.1,0.8,2.2,2c0,0.3-0.1,0.5-0.2,0.7l-9.2,14.9h6.9l-0.9-5.6c0-1.2,1.1-1.5,2.1-1.5s1.3,0.5,1.4,1.4l1.7,10v0.4
		C627.5,39.6,626.4,39.9,625.4,39.9z M648.9,47.2h-10l3.9,6.8l2.7-2.6c0.3-0.4,0.8-0.6,1.2-0.7c1.2,0.3,2.1,1.2,2.3,2.4
		c-0.1,0.5-0.3,1-0.7,1.3l-3.3,3.3l4,7.1c0.2,0.3,0.3,0.7,0.3,1.1c0,1.1-1.8,2.2-2.8,2.2c-0.6-0.1-1.2-0.4-1.4-1l-3.5-6.1l-5.8,5.8
		c-0.3,0.3-0.7,0.6-1.2,0.6c-0.9,0-2.3-1.6-2.3-2.5c0.1-0.5,0.3-0.9,0.7-1.2l6.5-6.4l-5.7-10h-11.6l-2,6.2l7.7,7.6
		c0.4,0.3,0.7,0.8,0.7,1.3c-0.3,1.2-1.2,2.2-2.5,2.5c-0.5,0-0.9-0.3-1.2-0.7l-6.1-6.1l-2.7,8.4c-0.1,0.8-0.8,1.4-1.6,1.4
		c-1,0-2.8-0.6-2.8-1.8c0-0.3,0.1-0.6,0.1-0.8l5.7-17.9h-4.2c-1.3,0-1.9-0.5-1.9-2.2s0.6-2.3,1.9-2.3h18l-2.5-4.3
		c-0.4-0.7-0.6-1.6-0.7-2.4V11.1c0-1.3,0.5-2,2.2-2s2.2,0.6,2.2,2v25.1l3.7,6.5h5.4l-0.3-1.7c0-1.2,1.3-1.6,2.3-1.6s1.4,0.5,1.6,1.4
		l0.4,2h3.2c1.3,0,2,0.6,2,2.3S650.2,47.2,648.9,47.2z M648.9,39.8c-0.7,0.1-1.3-0.4-1.4-1.1c0,0,0-0.1,0-0.1l-0.1-0.7h-11.1
		c-1,0-1.7-0.5-1.7-1.6v-1.4c0-0.8,0.3-1.5,0.7-2.2l4-6.2l-3.6-1.2c-0.7-0.3-1.2-0.9-1.2-1.7v-1.8c0-0.8,0.3-1.5,0.7-2.2l5.5-9.6
		c0.3-0.5,0.8-0.7,1.3-0.7c1.1-0.1,2.1,0.8,2.2,1.9c0,0.2,0,0.5-0.1,0.6l-5.8,10l3.3,1l3.8-6.1c0.3-0.4,0.8-0.7,1.3-0.6
		c1.1,0,2.1,0.8,2.2,2c0,0.3-0.1,0.5-0.2,0.7l-9.2,14.9h7.2l-1-6c0-1.1,1.2-1.4,2.1-1.4c0.8-0.1,1.4,0.5,1.5,1.2c0,0,0,0.1,0,0.1
		L651,38v0.4C651,39.5,649.9,39.8,648.9,39.8z"/>
	<path class="st0" d="M676.2,45c-0.5,0-0.9-0.3-1.3-0.9l-4.6-7v28.6c0,1.4-0.7,2.1-2.5,2.1s-2.5-0.7-2.5-2.1V34l-4.7,17
		c-0.3,0.9-0.7,1.4-1.6,1.4c-1.1,0-2.9-0.7-2.9-2c0-0.3,0.1-0.6,0.1-0.8l5.9-20.8c0.3-0.9,0.7-1.4,1.6-1.4c0.5,0,1.1,0.2,1.6,0.4
		v-3.6h-6c-1.4,0-2.2-0.6-2.2-2.5s0.7-2.5,2.2-2.5h6v-7.9c0-1.4,0.6-2.1,2.5-2.1s2.5,0.7,2.5,2.1v7.9h5.6c1.4,0,2.2,0.6,2.2,2.5
		s-0.8,2.5-2.2,2.5h-5.6v9.4c0.1,0,0.1-0.1,0.1-0.1c0.4-0.3,0.9-0.5,1.4-0.5c0.5,0,0.9,0.3,1.3,0.9l5.3,7.9c0.2,0.3,0.4,0.7,0.4,1.1
		C678.8,43.9,677.1,45,676.2,45z M714.3,60.9h-0.8v4.7c0,1.4-0.7,2.1-2.4,2.1s-2.4-0.7-2.4-2.1v-4.7h-23.1v4.8c0,1.4-0.6,2-2.3,2
		s-2.3-0.7-2.3-2v-4.8h-0.7c-1.2,0-1.8-0.5-1.8-2.2s0.6-2.2,1.8-2.2h0.7V42.1c0-2.7,1.8-4.2,4.5-4.2h9.6v-3.8h-14.6
		c-1.2,0-1.8-0.5-1.8-2.1s0.6-2.1,1.8-2.1h5.5v-4.6h-2.7c-1.2,0-1.8-0.5-1.8-2.1s0.6-2.2,1.8-2.2h2.7v-4.6h-4.5
		c-1.2,0-1.8-0.5-1.8-2.1s0.6-2.1,1.8-2.1h4.5v-0.9c0-1.4,0.6-2.1,2.3-2.1s2.4,0.7,2.4,2.1v0.9h13.1v-0.9c0-1.4,0.6-2.1,2.3-2.1
		s2.4,0.7,2.4,2.1v0.9h4.4c1.2,0,1.9,0.6,1.9,2.1s-0.7,2.1-1.9,2.1h-4.4V21h2.7c1.2,0,1.9,0.6,1.9,2.1s-0.7,2.1-1.9,2.1h-2.7v4.5
		h5.5c1.2,0,1.9,0.6,1.9,2.1c0,1.6-0.7,2.2-1.9,2.2h-14.7v3.8h9.8c2.7,0,4.5,1.4,4.5,4.2v14.6h0.8c1.2,0,1.9,0.6,1.9,2.2
		S715.6,60.9,714.3,60.9z M695,42.1h-9.4v5.2h9.4V42.1z M695,51.5h-9.4v5.1h9.4V51.5z M703.7,16.4h-13.1V21h13.1L703.7,16.4z
		 M703.7,25.2h-13.1v4.5h13.1L703.7,25.2z M708.7,42.1h-9.5v5.2h9.5V42.1z M708.7,51.5h-9.5v5.1h9.5V51.5z"/>
	<path class="st0" d="M376.9,131.3h-15.1c-0.7-0.1-1.3,0.3-1.6,1l-5.1,19.8c-0.6,2.6-2,3.5-4.7,3.5h-7.8c-1.3,0-1.9-0.5-1.9-2.6
		s0.5-2.7,1.9-2.7h5.9c1,0.1,1.9-0.6,2.1-1.6c0,0,0,0,0,0l5.2-19.8c0.6-2.2,1.7-3,4.1-3h15.5c4.8,0,7.3-3.1,7.3-7.9v-6
		c0-1.2-0.2-2.2-2.2-2.2H337c-1.3,0-1.9-0.6-1.9-2.7s0.5-2.7,1.9-2.7h45.7c4.2,0,5.3,1.3,5.3,5.2v9.7
		C388,125,385.3,131.3,376.9,131.3z"/>
	<path class="st0" d="M444.4,155.6h-11.3c-1.3,0-1.9-0.6-1.9-2.6s0.5-2.7,1.9-2.7h8.6c1.9,0,2.5-1,2.5-2.7v-28.5
		c0.2-1.1-0.6-2-1.6-2.2c-0.2,0-0.4,0-0.6,0h-23.6v13c0,4-0.1,5.7-2.2,9.4l-8.9,15.9c-0.3,0.5-0.6,0.9-1.2,0.9c-1,0-3.7-1.5-3.7-2.6
		c0-0.4,0.2-0.8,0.4-1.1l8.5-15.5c1.6-2.8,1.7-4.2,1.7-7.8v-12.2h-11.2c-1.2,0-1.9-0.5-1.9-2.7s0.6-2.7,1.9-2.7h11.2v-6.7
		c0-1.4,0.5-1.9,2.7-1.9s2.7,0.6,2.7,1.9v6.7h25.9c3.6,0,5.3,1.8,5.3,5.2V150C449.5,153.7,447.6,155.6,444.4,155.6z"/>
	<path class="st0" d="M516.2,128.4H501v8.2c0.1,2.2-0.6,4.4-1.9,6.2l-5.9,9.6c-1.5,2.4-2.8,3.1-6.2,3.1h-17.6
		c-1.2,0-1.9-0.5-1.9-2.5s0.6-2.7,1.9-2.7h16.5c1.7,0,2.5-0.3,3.1-1.4l5.5-9.2c0.8-1.1,1.2-2.4,1.1-3.8v-7.5h-29
		c-1.2,0-1.9-0.6-1.9-2.7s0.6-2.7,1.9-2.7h49.6c1.3,0,1.9,0.5,1.9,2.7S517.6,128.4,516.2,128.4z M508.1,110.2h-39.7
		c-1.3,0-1.9-0.5-1.9-2.7s0.5-2.7,1.9-2.7h39.9c1.2,0,1.7,0.6,1.7,2.7S509.6,110.2,508.1,110.2z M510.9,103.5h-2.4
		c-0.7,0-1.3-0.5-1.3-1.2c0,0,0,0,0-0.1V100c0-0.7,0.5-1.3,1.2-1.3c0,0,0,0,0.1,0h2.4c0.7,0,1.3,0.5,1.3,1.2c0,0,0,0,0,0.1v2.3
		C512.1,103,511.6,103.5,510.9,103.5L510.9,103.5z M519.3,103.5h-2.4c-0.7,0-1.3-0.6-1.3-1.3V100c0-0.7,0.5-1.3,1.2-1.3
		c0,0,0,0,0.1,0h2.4c0.7,0,1.3,0.5,1.3,1.2c0,0,0,0.1,0,0.1v2.3C520.6,103,520,103.5,519.3,103.5
		C519.3,103.5,519.3,103.5,519.3,103.5z"/>
	<path class="st0" d="M578.9,115.1h-9c-0.7,0-1.3-0.1-2-0.2l-34-6.8c-1.2-0.3-1.8-0.5-1.8-1.7s0.3-3.6,1.6-3.6c0.2,0,0.4,0,0.6,0.1
		l33.2,6.6c0.9,0.2,1.8,0.3,2.7,0.3h8.7c1.2,0,1.9,0.6,1.9,2.7S580.2,115.1,578.9,115.1z M578.9,135.4h-9c-0.7,0-1.3-0.1-2-0.2
		l-34-6.7c-1.2-0.3-1.8-0.5-1.8-1.8s0.3-3.6,1.6-3.6c0.2,0,0.4,0,0.6,0.1l33.2,6.6c0.9,0.2,1.8,0.2,2.7,0.2h8.7
		c1.2,0,1.9,0.6,1.9,2.7S580.2,135.4,578.9,135.4z M578.9,155.6h-9c-0.7,0-1.3-0.1-2-0.2l-34-6.7c-1.2-0.2-1.8-0.5-1.8-1.8
		c0-1,0.3-3.5,1.6-3.5c0.2,0,0.4,0,0.6,0.1l33.2,6.6c0.9,0.2,1.8,0.3,2.7,0.3h8.7c1.2,0,1.9,0.5,1.9,2.7S580.2,155.6,578.9,155.6z"
		/>
	<path class="st0" d="M603.2,134.7c-1.6,0-2.2-0.4-2.2-1.5v-9c0.2-1.3-0.2-2.6-1-3.6l-1.9-2.6c-0.2-0.3-0.4-0.6-0.5-1
		c0-0.9,2.1-2.2,2.9-2.2c0.5,0,0.9,0.3,1.2,0.8l2.3,3c1.4,1.9,1.4,2.3,1.4,4.8v9.8C605.5,134.3,604.9,134.7,603.2,134.7z
		 M639.2,142.4l-7.9,10.7c-1.4,2-2.7,2.5-5.3,2.5h-20.3c-1,0-1.6-0.6-1.6-2.2s0.5-2.2,1.6-2.2H625c1.2,0,2-0.1,2.6-1.1l7.6-10.3
		c1-1.3,1-1.9,1-3.8v-20c0-0.9,0.8-1.4,2.3-1.4s2.4,0.4,2.4,1.6v20.5C640.9,139.2,640.7,140.4,639.2,142.4L639.2,142.4z
		 M618.5,134.7c-1.6,0-2.1-0.4-2.1-1.5v-9c0.2-1.3-0.2-2.6-1-3.6l-1.9-2.6c-0.2-0.3-0.4-0.6-0.5-1c0-0.9,2.1-2.2,2.9-2.2
		c0.5,0,0.9,0.3,1.2,0.8l2.3,3c1.4,1.9,1.4,2.3,1.4,4.8v9.8C620.7,134.3,620.2,134.7,618.5,134.7L618.5,134.7z"/>
	<path class="st0" d="M709.5,137.7l-11.3,14.8c-1.9,2.4-3.3,3.1-6.5,3.1h-22.8c-1.2,0-1.9-0.6-1.9-2.6s0.6-2.7,1.9-2.7h21.7
		c1.3,0.1,2.6-0.5,3.3-1.6l10.8-14.1c1.2-1.6,1.4-2.3,1.4-4.7v-17.8c0.1-1.1-0.7-2.1-1.8-2.2c-0.1,0-0.3,0-0.4,0h-23.6
		c-0.8-0.1-1.6,0.2-2.1,0.8l-10.1,12.5c-0.7,0.9-1.7,1.4-2.8,1.4h-4.5c-1.3,0-1.9-0.4-1.9-2.7s0.5-2.7,1.9-2.7h3c0.7,0,1-0.1,1.7-1
		l9.9-12.4c0.8-0.9,2-1.4,3.2-1.4h27.5c3.5,0,5.3,1.8,5.3,5.4v20.8C711.5,133.8,711.3,135.3,709.5,137.7z"/>
	<path class="st0" d="M451.3,218.7l-2.8,4.3c-1.4,2.1-2.6,2.9-6,2.9h-16.1c-1.2,0-1.8-0.6-1.8-2.5c0-2,0.5-2.7,1.8-2.7h14.8
		c1.7,0,2.3-0.3,3-1.3l2.3-3.5c0.8-1,1.1-2.2,1-3.4v-3.7c0.1-1.1-0.7-2.1-1.8-2.2c-0.2,0-0.3,0-0.5,0h-35.1v24.9
		c0,7.4,1.9,8.9,8.9,8.9h30c1.3,0,2,0.5,2,2.7s-0.6,2.6-2,2.6h-31.6c-9.2,0-12.7-3.2-12.7-12.7v-26.4H401c-1.2,0-1.8-0.6-1.8-2.9
		c0-2,0.6-2.5,1.8-2.5h3.7v-6.1c0-1.3,0.6-1.9,2.7-1.9s2.7,0.5,2.7,1.9v6.1h37.5c3.5,0,5.3,1.8,5.3,5.3v6.7
		C453.1,215.1,452.5,217.1,451.3,218.7z"/>
	<path class="st0" d="M514.3,229.2l-9.9,13.3c-1.8,2.4-3.3,3.2-6.8,3.2h-30.2c-1.3,0-1.9-0.6-1.9-2.6s0.5-2.7,1.9-2.7h29.4
		c1.3,0.1,2.5-0.4,3.2-1.5l9.4-12.8c1.2-1.6,1.4-2.3,1.4-4.8v-26.1c0-1.2,0.8-1.8,2.7-1.8c1.9,0,2.7,0.5,2.7,2v26.9
		C516.3,225.3,516.2,226.6,514.3,229.2z M492,203.9h-23.1c-1.3,0-2-0.6-2-2.7s0.6-2.7,2-2.7H492c1.3,0,2,0.5,2,2.7
		S493.3,203.9,492,203.9z"/>
	<path class="st0" d="M580.9,227.8h-7.4c-1.1,0.1-2.2-0.1-3.2-0.6L542.6,215v29.2c0,1.3-0.6,1.9-2.7,1.9s-2.7-0.5-2.7-1.9v-49.1
		c0-1.3,0.6-1.9,2.7-1.9s2.7,0.5,2.7,1.9v14.2l29.2,12.7c0.6,0.3,1.3,0.4,2,0.5h7.2c1.3,0,2,0.5,2,2.7S582.3,227.8,580.9,227.8z"/>
	<path class="st0" d="M644.5,232.3l-8.5,10.3c-1.9,2.3-3,3.1-6.2,3.1h-28.6c-1.2,0-1.9-0.6-1.9-2.6s0.6-2.7,1.9-2.7h27.4
		c1.3,0.1,2.6-0.5,3.4-1.6l7.7-9.2c1.2-1.4,1.4-2,1.4-4.1v-8.1c0.2-1.1-0.6-2-1.6-2.2c-0.2,0-0.3,0-0.5,0h-40c-1.5,0-2-0.6-2-2.7
		s0.5-2.7,2.1-2.7h42.3c3.5,0,5.2,1.8,5.2,5.3v11C646.4,229.3,646.2,230.3,644.5,232.3z M642.8,199.9H600c-1.2,0-1.9-0.6-1.9-2.7
		s0.6-2.7,1.9-2.7h42.8c1.3,0,1.9,0.6,1.9,2.7S644.2,199.9,642.8,199.9z"/>
	<path class="st0" d="M670.3,226.9l-7.2,17.4c-0.3,1-0.7,1.6-1.6,1.6s-3.7-0.6-3.7-1.9c0-0.3,0.1-0.6,0.2-0.9l7.2-17
		c1.2-2.4,1.7-5.1,1.6-7.7v-23c0-1.3,0.5-1.9,2.7-1.9s2.7,0.6,2.7,1.9v22.9C672.2,221.2,671.6,224.2,670.3,226.9z M708.8,241.6
		c-0.5,2.3-2.6,4-4.9,4h-11.4c-3.7,0-5.7-2.1-5.7-5.8v-44.7c0-1.3,0.6-1.9,2.7-1.9s2.7,0.5,2.7,1.9v42.9c-0.1,1.1,0.7,2.1,1.8,2.3
		c0.2,0,0.3,0,0.5,0h7c1.4,0.2,2.6-0.7,2.8-2.1c0,0,0,0,0,0l5.8-21.5c0.1-1,1-1.7,2-1.6c1.1,0,3.3,0.3,3.3,1.8
		c0,0.2-0.1,0.5-0.1,0.7L708.8,241.6z"/>
</g>
</svg>
