<?xml version="1.0" encoding="utf-8"?>
<!-- Generator: Adobe Illustrator 25.4.1, SVG Export Plug-In . SVG Version: 6.00 Build 0)  -->
<svg version="1.1" id="レイヤー_1" xmlns="http://www.w3.org/2000/svg" xmlns:xlink="http://www.w3.org/1999/xlink" x="0px"
	 y="0px" viewBox="0 0 720 260" style="enable-background:new 0 0 720 260;" xml:space="preserve">
<style type="text/css">
	.st0{fill:#002C76;stroke:#002C76;stroke-miterlimit:10;}
	.st1{fill:#002C76;}
</style>
<g id="_2_alt_a">
	<polygon class="st0" points="85.5,-1 0.5,259 48.3,259 132.4,34 204.5,259 233.3,259 155.5,-1 	"/>
	<polygon class="st1" points="163.5,139.7 168.4,154.7 107.7,153.7 102.1,173.5 174.7,174.7 180.1,188.4 78.2,187.2 94.9,139.7 	"/>
	<path class="st0" d="M289.8,213.7L287,218c-1.4,2.1-2.6,2.9-6,2.9h-16c-1.2,0-1.8-0.6-1.8-2.5c0-2,0.5-2.7,1.8-2.7h14.8
		c1.7,0,2.3-0.3,3-1.3l2.3-3.5c0.8-1,1.1-2.2,1-3.4v-3.7c0.1-1.1-0.7-2.1-1.8-2.2c-0.2,0-0.3,0-0.5,0h-35.1v24.9
		c0,7.4,1.9,8.9,8.9,8.9h30c1.3,0,2,0.5,2,2.7s-0.6,2.6-2,2.6h-31.6c-9.2,0-12.7-3.2-12.7-12.7v-26.3h-3.7c-1.2,0-1.8-0.6-1.8-2.9
		c0-2,0.6-2.5,1.8-2.5h3.7v-6.1c0-1.3,0.6-1.9,2.7-1.9s2.7,0.5,2.7,1.9v6.1h37.5c3.5,0,5.3,1.8,5.3,5.3v6.7
		C291.6,210.1,291,212.1,289.8,213.7z"/>
	<path class="st0" d="M378.8,224.2l-9.9,13.3c-1.8,2.4-3.3,3.2-6.8,3.2H332c-1.3,0-1.9-0.6-1.9-2.6s0.5-2.7,1.9-2.7h29.4
		c1.3,0.1,2.5-0.4,3.2-1.5l9.4-12.8c1.2-1.6,1.4-2.3,1.4-4.8v-26.1c0-1.2,0.8-1.8,2.7-1.8s2.7,0.5,2.7,2v26.9
		C380.8,220.3,380.7,221.6,378.8,224.2z M356.5,198.9h-23.1c-1.3,0-2-0.6-2-2.7s0.6-2.7,2-2.7h23.1c1.3,0,2,0.5,2,2.7
		S357.8,198.9,356.5,198.9L356.5,198.9z"/>
	<path class="st0" d="M471.4,222.8H464c-1.1,0.1-2.2-0.1-3.2-0.6L433.1,210v29.2c0,1.3-0.6,1.9-2.7,1.9s-2.7-0.5-2.7-1.9v-49.1
		c0-1.3,0.6-1.9,2.7-1.9s2.7,0.5,2.7,1.9v14.2l29.2,12.7c0.6,0.3,1.3,0.4,2,0.5h7.1c1.3,0,2,0.5,2,2.7S472.8,222.8,471.4,222.8z"/>
	<path class="st0" d="M561,227.3l-8.5,10.3c-1.9,2.3-3,3.1-6.2,3.1h-28.6c-1.2,0-1.9-0.6-1.9-2.6s0.6-2.7,1.9-2.7H545
		c1.3,0.1,2.6-0.5,3.4-1.6l7.7-9.2c1.2-1.4,1.4-2,1.4-4.1v-8.1c0.2-1.1-0.6-2-1.6-2.2c-0.2,0-0.3,0-0.5,0h-40c-1.5,0-2-0.6-2-2.7
		s0.5-2.7,2.1-2.7h42.3c3.5,0,5.2,1.8,5.2,5.3v11C562.9,224.3,562.7,225.3,561,227.3z M559.3,194.9h-42.8c-1.2,0-1.9-0.6-1.9-2.7
		s0.6-2.7,1.9-2.7h42.8c1.3,0,1.9,0.6,1.9,2.7S560.7,194.9,559.3,194.9L559.3,194.9z"/>
	<path class="st0" d="M612.8,221.9l-7.2,17.4c-0.3,1-0.7,1.6-1.6,1.6s-3.7-0.6-3.7-1.9c0-0.3,0.1-0.6,0.2-0.9l7.2-17
		c1.2-2.4,1.7-5.1,1.6-7.7v-23c0-1.3,0.5-1.9,2.7-1.9s2.7,0.6,2.7,1.9v22.9C614.7,216.2,614.1,219.2,612.8,221.9z M651.3,236.6
		c-0.5,2.3-2.6,4-4.9,4H635c-3.7,0-5.7-2.1-5.7-5.8v-44.7c0-1.3,0.6-1.9,2.7-1.9s2.7,0.5,2.7,1.9v42.9c-0.1,1.1,0.7,2.1,1.8,2.3
		c0.2,0,0.3,0,0.5,0h7c1.4,0.2,2.6-0.7,2.8-2.1c0,0,0,0,0,0l5.7-21.5c0.1-1,1-1.7,2-1.6c1.1,0,3.3,0.3,3.3,1.8
		c0,0.2-0.1,0.5-0.1,0.7L651.3,236.6z"/>
	<path class="st0" d="M253.9,132.3h-15.1c-0.7-0.1-1.3,0.3-1.6,1l-5.1,19.8c-0.6,2.6-2,3.5-4.8,3.5h-7.8c-1.3,0-1.9-0.5-1.9-2.6
		s0.5-2.7,1.9-2.7h5.9c1,0.1,1.9-0.6,2.1-1.6c0,0,0,0,0,0l5.2-19.8c0.6-2.2,1.7-3,4.1-3h15.5c4.8,0,7.3-3.1,7.3-7.9v-6
		c0-1.2-0.2-2.2-2.2-2.2h-43.4c-1.3,0-1.9-0.6-1.9-2.7s0.5-2.7,1.9-2.7h45.7c4.2,0,5.3,1.3,5.3,5.2v9.7
		C264.9,126,262.2,132.3,253.9,132.3z"/>
	<path class="st0" d="M340.2,156.6h-11.3c-1.3,0-1.9-0.6-1.9-2.6s0.5-2.7,1.9-2.7h8.6c1.9,0,2.5-1,2.5-2.7v-28.5
		c0.2-1.1-0.6-2-1.6-2.2c-0.2,0-0.4,0-0.6,0h-23.6v13c0,4-0.1,5.7-2.2,9.4l-8.9,15.9c-0.3,0.5-0.6,0.9-1.2,0.9c-1,0-3.7-1.5-3.7-2.6
		c0-0.4,0.2-0.8,0.4-1.1l8.5-15.5c1.6-2.8,1.7-4.2,1.7-7.8v-12.2h-11.2c-1.2,0-1.9-0.5-1.9-2.7s0.6-2.7,1.9-2.7h11.2v-6.7
		c0-1.4,0.5-1.9,2.7-1.9s2.7,0.6,2.7,1.9v6.7H340c3.6,0,5.3,1.8,5.3,5.2V151C345.3,154.7,343.4,156.6,340.2,156.6z"/>
	<path class="st0" d="M430.9,129.4h-15.2v8.2c0.1,2.2-0.6,4.4-1.9,6.2l-5.9,9.6c-1.5,2.4-2.8,3.1-6.2,3.1H384
		c-1.2,0-1.9-0.5-1.9-2.5s0.6-2.7,1.9-2.7h16.4c1.7,0,2.5-0.3,3.1-1.4l5.5-9.2c0.8-1.1,1.2-2.4,1.1-3.8v-7.5h-29
		c-1.2,0-1.9-0.6-1.9-2.7s0.6-2.7,1.9-2.7h49.6c1.3,0,1.9,0.5,1.9,2.7C432.7,128.8,432.2,129.4,430.9,129.4z M422.8,111.2h-39.7
		c-1.3,0-1.9-0.5-1.9-2.7s0.5-2.7,1.9-2.7H423c1.2,0,1.7,0.6,1.7,2.7S424.2,111.2,422.8,111.2z M425.5,104.5h-2.4
		c-0.7,0-1.3-0.5-1.3-1.2c0,0,0,0,0-0.1V101c0-0.7,0.5-1.3,1.2-1.3c0,0,0,0,0.1,0h2.4c0.7,0,1.3,0.5,1.3,1.2c0,0,0,0,0,0.1v2.3
		C426.8,104,426.2,104.5,425.5,104.5L425.5,104.5z M434,104.5h-2.4c-0.7,0-1.3-0.6-1.3-1.3V101c0-0.7,0.5-1.3,1.2-1.3c0,0,0,0,0.1,0
		h2.4c0.7,0,1.3,0.5,1.3,1.2c0,0,0,0.1,0,0.1v2.3C435.3,104,434.7,104.5,434,104.5C434,104.5,434,104.5,434,104.5L434,104.5z"/>
	<path class="st0" d="M512.4,116.1h-9c-0.7,0-1.3-0.1-2-0.2l-33.9-6.8c-1.2-0.3-1.8-0.5-1.8-1.7s0.3-3.6,1.6-3.6
		c0.2,0,0.4,0,0.6,0.1l33.1,6.6c0.9,0.2,1.8,0.3,2.7,0.3h8.7c1.2,0,1.9,0.6,1.9,2.7S513.7,116.1,512.4,116.1z M512.4,136.4h-9
		c-0.7,0-1.3-0.1-2-0.2l-33.9-6.7c-1.2-0.3-1.8-0.5-1.8-1.8s0.3-3.6,1.6-3.6c0.2,0,0.4,0,0.6,0.1l33.1,6.6c0.9,0.2,1.8,0.2,2.7,0.2
		h8.7c1.2,0,1.9,0.6,1.9,2.7S513.7,136.4,512.4,136.4z M512.4,156.6h-9c-0.7,0-1.3-0.1-2-0.2l-33.9-6.7c-1.2-0.2-1.8-0.5-1.8-1.8
		c0-1,0.3-3.5,1.6-3.5c0.2,0,0.4,0,0.6,0.1l33.1,6.6c0.9,0.2,1.8,0.3,2.7,0.3h8.7c1.2,0,1.9,0.5,1.9,2.7S513.7,156.6,512.4,156.6z"
		/>
	<path class="st0" d="M555.6,135.7c-1.6,0-2.1-0.4-2.1-1.5v-9c0.2-1.3-0.2-2.6-1-3.6l-1.9-2.6c-0.2-0.3-0.4-0.6-0.5-1
		c0-0.9,2.1-2.2,2.9-2.2c0.5,0,0.9,0.3,1.2,0.8l2.3,3c1.4,1.9,1.4,2.3,1.4,4.8v9.8C557.8,135.3,557.3,135.7,555.6,135.7z
		 M591.6,143.4l-7.9,10.7c-1.4,2-2.7,2.5-5.3,2.5h-20.3c-1,0-1.6-0.6-1.6-2.2s0.5-2.2,1.6-2.2h19.2c1.2,0,2-0.1,2.6-1.1l7.6-10.3
		c1-1.3,1-1.9,1-3.8v-20c0-0.9,0.8-1.4,2.3-1.4s2.4,0.4,2.4,1.6v20.5C593.3,140.2,593.1,141.4,591.6,143.4L591.6,143.4z
		 M570.9,135.7c-1.6,0-2.2-0.4-2.2-1.5v-9c0.2-1.3-0.2-2.6-1-3.6l-1.9-2.6c-0.2-0.3-0.4-0.6-0.5-1c0-0.9,2.1-2.2,2.9-2.2
		c0.5,0,0.9,0.3,1.2,0.8l2.3,3c1.4,1.9,1.4,2.3,1.4,4.8v9.8C573.1,135.3,572.5,135.7,570.9,135.7L570.9,135.7z"/>
	<path class="st0" d="M680.6,138.7l-11.3,14.8c-1.9,2.4-3.3,3.1-6.5,3.1h-22.8c-1.2,0-1.9-0.6-1.9-2.6s0.6-2.7,1.9-2.7h21.7
		c1.3,0.1,2.6-0.5,3.3-1.6l10.8-14.1c1.2-1.6,1.4-2.3,1.4-4.7v-17.8c0.1-1.1-0.7-2.1-1.8-2.2c-0.1,0-0.3,0-0.4,0h-23.6
		c-0.8-0.1-1.6,0.2-2.1,0.8l-10.1,12.5c-0.7,0.9-1.7,1.4-2.8,1.4H632c-1.3,0-1.9-0.4-1.9-2.7s0.5-2.7,1.9-2.7h3c0.7,0,1-0.1,1.7-1
		l10-12.4c0.8-0.9,2-1.4,3.2-1.4h27.5c3.5,0,5.3,1.8,5.3,5.4v20.8C682.7,134.8,682.5,136.3,680.6,138.7z"/>
	<path class="st0" d="M250.7,24.3h-24.5v5.6h18.6c2.7,0,4.2,1.4,4.2,4.2v17.4c0,2.7-1.4,4.2-4.2,4.2h-18.6v15.9
		c0,1.6-0.7,2.3-2.7,2.3s-2.7-0.8-2.7-2.3V55.5h-0.4l-20.9,16.4c-0.4,0.3-0.8,0.6-1.3,0.6c-1.2,0-2.5-2-2.5-3.1
		c0.1-0.7,0.4-1.3,1-1.6l15.7-12.2h-10.3c-2.7,0-4.2-1.4-4.2-4.2V34c0-2.7,1.4-4.2,4.2-4.2h18.7v-5.6h-24.6c-1.4,0-2-0.6-2-2.3
		s0.6-2.3,2-2.3h24.6v-2c0-1.6,0.6-2.4,2.7-2.4s2.7,0.8,2.7,2.4v2h24.5c1.4,0,2.1,0.6,2.1,2.3S252.1,24.3,250.7,24.3z M220.7,34.5
		h-17.5v5.8h17.6L220.7,34.5z M220.7,44.9h-17.5v5.8h17.6L220.7,44.9z M243.6,34.5h-17.4v5.8h17.5L243.6,34.5z M243.6,44.9h-17.4
		v5.8h17.5L243.6,44.9z M250.4,71.2c-0.6,0.8-1.2,1.2-1.8,1.2c-0.5,0-1-0.2-1.4-0.6l-12.1-9.8c-0.5-0.3-0.9-0.9-0.9-1.6
		c0-1.1,1.5-3,2.7-3c0.5,0.1,1,0.3,1.4,0.7l12,9.7c0.5,0.4,0.9,0.9,0.9,1.6C251.1,70.1,250.9,70.7,250.4,71.2L250.4,71.2z"/>
	<path class="st0" d="M271.7,38c-0.5,1.4-1,2-1.9,2c-0.3,0-0.7-0.1-1-0.2l-8.1-2.6c-1-0.3-1.6-0.8-1.6-1.8c0-1.2,0.7-3.2,2.1-3.2
		c0.3,0,0.6,0.1,0.9,0.2l8,2.5c1,0.3,1.6,0.9,1.6,1.9C271.9,37.2,271.9,37.6,271.7,38z M272.1,49.2l-7.4,23.1
		c-0.3,1-0.8,1.6-1.8,1.6c-1.3,0-3.3-0.8-3.3-2.3c0-0.3,0.1-0.7,0.2-1l7.4-23.1c0.3-1,0.8-1.6,1.9-1.6c1.3,0,3.2,0.8,3.2,2.3
		C272.3,48.5,272.2,48.9,272.1,49.2L272.1,49.2z M271.8,22.8c-0.4,1.2-1,1.8-1.8,1.8c-0.3,0-0.7-0.1-1-0.2l-7.2-2.9
		c-1-0.4-1.4-0.9-1.4-1.8c0-1.2,0.7-3.2,2.1-3.2c0.3,0,0.7,0.1,1,0.2l7.2,3c0.9,0.2,1.4,1,1.4,1.9C272.1,21.9,272,22.4,271.8,22.8
		L271.8,22.8z M315.5,23h-33.4l-2.6,8.7c-0.3,1-0.9,1.6-1.9,1.6c-1.3,0-3.4-0.7-3.4-2.1c0-0.3,0.1-0.7,0.2-1l4.2-14
		c0.2-1,1.1-1.7,2.1-1.7c1.2,0,3.2,0.5,3.2,2c0,0.3-0.1,0.7-0.2,1l-0.1,0.5h31.9c1.4,0,2.2,0.6,2.2,2.5S317,23,315.5,23L315.5,23z
		 M315.6,51.6h-1.4l-0.6,20.7c-0.2,1.2-1.3,2-2.5,1.9c-1.1,0.1-2.2-0.7-2.3-1.8l0.1-2.6h-26.7c-2.6,0-4.3-1.5-4.2-4l0.9-14.2h-1.5
		c-1.4,0-2.1-0.6-2.1-2.4s0.6-2.5,2.1-2.5h1.8l0.8-13.3c0-2.6,2.1-4.6,4.7-4.6c0,0,0.1,0,0.1,0h25.7c2.7,0,4.4,1.4,4.4,4.1
		l-0.5,13.8h1.2c1.4,0,2.1,0.7,2.1,2.5S317,51.6,315.6,51.6L315.6,51.6z M283.7,51.6l-0.8,13.3h10.5l0.8-13.3H283.7z M284.8,33.5
		L284,46.7h10.5l0.8-13.2L284.8,33.5z M298.7,51.6L298,64.9h11l0.4-13.3H298.7z M299.7,33.5L299,46.7h10.6l0.4-13.2L299.7,33.5z"/>
	<path class="st0" d="M376.1,73h-45.2c-2.7,0-4.8-2.2-4.8-4.8c0,0,0,0,0-0.1V20.8c0-2.7,2.1-4.5,4.9-4.5h45.2c2.7,0,4.9,1.8,4.9,4.5
		v47.3c0,2.7-2.1,4.9-4.7,4.9C376.2,73,376.1,73,376.1,73z M376,20.9h-45v47.5h45V20.9z M369.2,62.2h-31.5c-1.4,0-2-0.6-2-2.3
		s0.6-2.3,2-2.3h13.4V46.2h-11c-1.3,0-2-0.5-2-2.3s0.6-2.3,2-2.3h11V32h-12.7c-1.4,0-2-0.6-2-2.3s0.6-2.3,2-2.3h30
		c1.4,0,2.1,0.6,2.1,2.3s-0.7,2.3-2,2.3h-12.6v9.7h10.9c1.3,0,2,0.6,2,2.3s-0.7,2.3-2,2.3h-10.9v11.2h13.3c1.4,0,2.1,0.6,2.1,2.3
		S370.5,62.2,369.2,62.2z M365.6,56.2c-0.6,0-1.2-0.4-1.4-1l-2.1-4.5c-0.2-0.3-0.3-0.6-0.3-0.9c0-1,1.6-1.8,2.5-1.8
		c0.7,0,1.3,0.5,1.5,1.1l2.1,4.4c0.2,0.3,0.3,0.6,0.3,0.9C368.1,55.4,366.5,56.1,365.6,56.2L365.6,56.2z"/>
	<path class="st0" d="M445.5,72.9h-54.3c-1.4,0-2.1-0.6-2.1-2.5s0.7-2.5,2.1-2.5h33.3l7.7-33.2c0.1-1.1,1-1.9,2.1-1.9
		c0,0,0.1,0,0.1,0c1.2,0,3.2,0.5,3.2,2c0,0.3-0.1,0.6-0.1,0.8L430,67.8h15.6c1.4,0,2.2,0.7,2.2,2.5S447,72.9,445.5,72.9z
		 M443.5,27.7h-50.3c-1.5,0-2.2-0.6-2.2-2.5s0.7-2.6,2.2-2.6h22.5v-5.1c0-1.6,0.6-2.3,2.7-2.3s2.7,0.8,2.7,2.3v5.1h22.4
		c1.5,0,2.3,0.6,2.3,2.6S445,27.7,443.5,27.7L443.5,27.7z M404.9,63.1c-1.4,0-2-0.7-2.2-2l-3.6-26.1c0-1.8,1.8-2.2,3.2-2.2
		s2,0.7,2.1,2l3.5,25.5c0,0.2,0.1,0.4,0.1,0.5C408,62.8,406.4,63.1,404.9,63.1z"/>
	<path class="st0" d="M510.4,34.9h-25.2l-24.4,37.2c-0.4,0.7-1,1.2-1.8,1.2c-1.2,0-3.6-1.5-3.6-2.8c0-0.5,0.2-1,0.5-1.4l22.4-34.2
		h-21.9c-1.6,0-2.3-0.7-2.3-2.7s0.8-2.8,2.3-2.8h24.2V17.7c0-1.7,0.7-2.5,2.9-2.5s2.9,0.8,2.9,2.5v11.6h24c1.6,0,2.4,0.7,2.4,2.8
		S511.9,34.9,510.4,34.9z M508,73.4c-0.7,0-1.2-0.4-1.8-1.2L489,44.4c-0.3-0.4-0.5-0.9-0.5-1.4c0-1.3,2.1-2.7,3.4-2.7
		c0.7,0,1.2,0.5,1.8,1.2L511,69.1c0.3,0.4,0.4,0.9,0.5,1.4C511.5,71.8,509.3,73.4,508,73.4z"/>
	<path class="st0" d="M575.2,37.2c-2,0-2.5-0.7-2.5-2.2v-5.4h-48.3V35c0,1.5-0.7,2.2-2.6,2.2s-2.5-0.7-2.5-2.2v-5.9
		c-0.2-2.3,1.6-4.3,3.9-4.5c0.2,0,0.4,0,0.6,0h38.7l2.8-7.5c0.2-0.9,1-1.6,2-1.6c1.2,0,3.1,0.6,3.1,2c0,0.3-0.1,0.7-0.2,1l-2.1,6.1
		h5.3c2.3-0.2,4.3,1.6,4.5,3.9c0,0.2,0,0.4,0,0.6V35C577.8,36.5,577.1,37.2,575.2,37.2z M575.5,57.6h-24v12c0,2.7-1.4,4.2-4.2,4.2
		h-11.3c-1.4,0-2.2-0.6-2.2-2.5s0.7-2.5,2.2-2.5h10.1V57.6h-24.8c-1.4,0-2.1-0.6-2.1-2.5s0.7-2.5,2.1-2.5h24.8v-3.3
		c0-1.2,0.7-2.4,1.7-3.1l10.1-5.3h-26.6c-1.4,0-2.1-0.6-2.1-2.4s0.7-2.5,2.1-2.5H561c3,0,4.5,1.9,4.5,3.8c0,1.2-0.7,2.4-1.8,3
		l-12.2,6.8v3h24c1.4,0,2.2,0.7,2.2,2.5S577,57.6,575.5,57.6z M529.9,24.4c-0.9,0-1.8-0.6-1.9-1.6l-1.3-4.1
		c-0.1-0.3-0.1-0.6-0.1-0.9c0-1.4,1.8-1.9,3-1.9c0.9,0,1.8,0.6,2,1.6l1.3,4c0.1,0.3,0.2,0.6,0.2,0.9C533,23.9,531.1,24.4,529.9,24.4
		z M547.1,24.4c-1,0-1.6-0.5-1.9-1.6l-1.4-4.7c-0.1-0.3-0.1-0.6-0.1-0.8c0-1.4,1.9-1.9,3.1-1.9s1.6,0.5,1.9,1.6l1.4,4.7
		c0.1,0.3,0.1,0.6,0.1,0.8C550.1,23.9,548.3,24.4,547.1,24.4L547.1,24.4z"/>
	<path class="st0" d="M600.6,51.2c-0.6,0-1.1-0.4-1.4-0.9l-3.6-6.2v27.6c0,1.4-0.7,2-2.4,2s-2.3-0.7-2.3-2V41.3l-3.7,15.4
		c-0.2,0.8-0.6,1.4-1.4,1.4c-1.1,0-2.7-0.6-2.7-1.9c0-0.2,0-0.4,0.1-0.7l5.2-20.9c0.1-0.8,0.7-1.4,1.5-1.4c0.4,0,0.7,0.1,1,0.3v-3.3
		h-4.7c-1.4,0-2.2-0.6-2.2-2.5s0.7-2.5,2.2-2.5h4.7v-7.9c0-1.4,0.6-2.1,2.3-2.1s2.4,0.7,2.4,2.1v7.9h4.5c1.4,0,2.2,0.6,2.2,2.5
		s-0.8,2.5-2.2,2.5h-4.5V40c0.3-0.2,0.8-0.4,1.2-0.4c0.5,0,0.9,0.3,1.3,0.9l4.7,7.6c0.2,0.3,0.4,0.7,0.4,1.1
		C603.2,50.2,601.5,51.2,600.6,51.2z M617.4,45.9c-0.7,0-1.3-0.5-1.3-1.2c0,0,0,0,0-0.1l-0.1-0.8h-10.8c-1,0-1.7-0.5-1.7-1.6v-1.4
		c0-0.8,0.3-1.5,0.7-2.2l3.9-6.2l-3.5-1.2c-0.7-0.3-1.2-0.9-1.2-1.7v-1.8c0-0.8,0.3-1.5,0.7-2.2l5.5-9.6c0.3-0.5,0.8-0.7,1.3-0.7
		c1.1-0.1,2.1,0.8,2.2,1.9c0,0.2,0,0.5-0.1,0.6l-5.8,10l3.3,1l3.8-6.1c0.3-0.4,0.8-0.7,1.3-0.6c1.1,0,2.1,0.8,2.2,2
		c0,0.3-0.1,0.5-0.2,0.7l-9.2,14.9h6.9l-0.9-5.6c0-1.2,1.1-1.5,2.1-1.5s1.3,0.5,1.4,1.4l1.7,10v0.4
		C619.4,45.6,618.3,45.9,617.4,45.9L617.4,45.9z M640.8,53.2h-9.9l3.8,6.8l2.7-2.6c0.3-0.4,0.8-0.6,1.2-0.7c1.2,0.3,2.1,1.2,2.3,2.5
		c-0.1,0.5-0.3,1-0.7,1.3l-3.3,3.2l4,7.1c0.2,0.3,0.3,0.7,0.3,1.1c0,1.1-1.8,2.2-2.8,2.2c-0.7-0.1-1.2-0.5-1.4-1.1l-3.4-6l-5.8,5.8
		c-0.3,0.3-0.7,0.6-1.2,0.6c-1.2-0.3-2.1-1.3-2.3-2.5c0.1-0.5,0.3-0.9,0.7-1.2l6.5-6.4l-5.7-10h-11.6l-2,6.2l7.7,7.6
		c0.4,0.3,0.7,0.8,0.7,1.3c-0.3,1.2-1.2,2.2-2.5,2.5c-0.5,0-0.9-0.3-1.2-0.7l-6.1-6.1l-2.7,8.4c-0.1,0.8-0.8,1.4-1.6,1.4
		c-1,0-2.8-0.6-2.8-1.8c0-0.3,0.1-0.6,0.1-0.8l5.7-17.9h-4.2c-1.3,0-1.9-0.5-1.9-2.2s0.6-2.3,1.9-2.3h18l-2.5-4.3
		c-0.4-0.8-0.6-1.6-0.7-2.4V17.1c0-1.3,0.5-1.9,2.2-1.9s2.2,0.6,2.2,1.9v25.1l3.7,6.5h5.4l-0.3-1.7c0-1.2,1.3-1.6,2.3-1.6
		s1.4,0.5,1.6,1.4l0.4,2h3.2c1.3,0,2,0.6,2,2.3S642.1,53.2,640.8,53.2L640.8,53.2z M640.9,45.8c-0.7,0.1-1.3-0.4-1.4-1.1
		c0,0,0-0.1,0-0.1l-0.1-0.7h-11.1c-1,0-1.7-0.5-1.7-1.6v-1.4c0-0.8,0.3-1.5,0.7-2.2l4-6.2l-3.6-1.2c-0.7-0.3-1.2-0.9-1.2-1.7v-1.8
		c0-0.8,0.3-1.5,0.7-2.2l5.5-9.6c0.3-0.5,0.8-0.7,1.3-0.7c1.1-0.1,2.1,0.8,2.2,1.9c0,0.2,0,0.5-0.1,0.6l-5.8,10l3.3,1l3.8-6.1
		c0.3-0.4,0.8-0.7,1.3-0.6c1.1,0,2.1,0.8,2.2,2c0,0.3-0.1,0.5-0.2,0.7l-9.2,14.9h7.2l-1-6c0-1.1,1.2-1.4,2.1-1.4
		c0.7-0.1,1.4,0.5,1.5,1.2c0,0,0,0.1,0,0.1L643,44v0.4C643,45.5,641.8,45.8,640.9,45.8L640.9,45.8z"/>
	<path class="st0" d="M668.1,51c-0.5,0-0.9-0.3-1.3-0.9l-4.6-7v28.6c0,1.4-0.7,2.1-2.5,2.1s-2.5-0.7-2.5-2.1V40l-4.7,17
		c-0.3,0.9-0.7,1.4-1.6,1.4c-1.1,0-2.9-0.7-2.9-2c0-0.3,0.1-0.6,0.1-0.8l5.9-20.8c0.3-0.9,0.7-1.4,1.6-1.4c0.5,0,1.1,0.2,1.6,0.4
		v-3.6h-6c-1.4,0-2.1-0.6-2.1-2.5s0.7-2.5,2.1-2.5h6v-7.9c0-1.4,0.6-2.1,2.5-2.1s2.5,0.7,2.5,2.1v7.9h5.6c1.4,0,2.2,0.6,2.2,2.5
		s-0.8,2.5-2.2,2.5h-5.6v9.4c0.1,0,0.1-0.1,0.1-0.1c0.4-0.3,0.9-0.5,1.4-0.5c0.5,0,0.9,0.3,1.3,0.9l5.3,7.9c0.2,0.3,0.4,0.7,0.4,1.1
		C670.7,49.9,669,51,668.1,51z M706.3,66.9h-0.8v4.7c0,1.4-0.7,2.1-2.4,2.1s-2.4-0.7-2.4-2.1v-4.7h-23.1v4.8c0,1.4-0.6,2-2.3,2
		s-2.3-0.7-2.3-2v-4.8h-0.7c-1.2,0-1.8-0.5-1.8-2.2s0.6-2.2,1.8-2.2h0.7V48.1c0-2.7,1.8-4.2,4.5-4.2h9.7v-3.8h-14.7
		c-1.2,0-1.8-0.5-1.8-2.2s0.6-2.1,1.8-2.1h5.5v-4.6h-2.7c-1.2,0-1.8-0.5-1.8-2.1s0.6-2.2,1.8-2.2h2.7v-4.6h-4.5
		c-1.2,0-1.8-0.5-1.8-2.1s0.6-2.1,1.8-2.1h4.5v-0.9c0-1.4,0.6-2.1,2.3-2.1s2.4,0.7,2.4,2.1v0.9h13.1v-0.9c0-1.4,0.6-2.1,2.3-2.1
		s2.4,0.7,2.4,2.1v0.9h4.4c1.2,0,1.9,0.6,1.9,2.1s-0.7,2.1-1.9,2.1h-4.4V27h2.7c1.2,0,1.9,0.6,1.9,2.1s-0.7,2.1-1.9,2.1h-2.7v4.5
		h5.5c1.2,0,1.9,0.6,1.9,2.1s-0.7,2.2-1.9,2.2h-14.7v3.8h9.8c2.7,0,4.5,1.4,4.5,4.2v14.6h0.8c1.2,0,1.9,0.6,1.9,2.1
		S707.5,66.9,706.3,66.9L706.3,66.9z M687,48.1h-9.4v5.2h9.4V48.1z M687,57.5h-9.4v5.1h9.4V57.5z M695.7,22.4h-13.1V27h13.1
		L695.7,22.4z M695.7,31.2h-13.1v4.5h13.1L695.7,31.2z M700.7,48.1h-9.5v5.2h9.5V48.1z M700.7,57.5h-9.5v5.1h9.5V57.5z"/>
</g>
</svg>
