<svg id="レイヤー_1" data-name="レイヤー 1" xmlns="http://www.w3.org/2000/svg" viewBox="0 0 719 255"><defs><style>.cls-1,.cls-2{fill:#002c76;}.cls-1{stroke:#002c76;stroke-miterlimit:10;}</style></defs><g id="_2_alt_b" data-name="2_alt_b"><polygon class="cls-1" points="85 0 0 260 47.77 260 131.85 35 204.04 260 232.83 260 155 0 85 0"/><polygon class="cls-2" points="163 140.67 167.9 155.67 107.19 154.66 101.61 174.5 174.24 175.66 179.59 189.41 77.74 188.16 94.43 140.67 163 140.67"/><path class="cls-1" d="M258.74,18.28H234.23v5.59h18.66c2.73,0,4.16,1.43,4.16,4.16V45.39c0,2.73-1.43,4.16-4.16,4.16H234.23V65.47c0,1.57-.71,2.35-2.73,2.35s-2.73-.78-2.73-2.35V49.55h-.39L207.52,65.93a2.12,2.12,0,0,1-1.31.59c-1.17,0-2.46-2-2.46-3.13a2.11,2.11,0,0,1,1-1.62l15.67-12.22H210.12c-2.73,0-4.16-1.43-4.16-4.16V28c0-2.73,1.43-4.16,4.16-4.16h18.65V18.28H204.13c-1.36,0-2-.58-2-2.34s.65-2.34,2-2.34h24.64v-2c0-1.56.65-2.41,2.73-2.41s2.73.85,2.73,2.41v2h24.51c1.36,0,2.08.59,2.08,2.34S260.1,18.28,258.74,18.28Zm-30,10.27H211.22V34.4h17.55Zm0,10.4H211.22V44.8h17.55Zm22.95-10.4H234.23V34.4h17.49Zm0,10.4H234.23V44.8h17.49Zm6.76,26.26c-.65.85-1.24,1.24-1.82,1.24a2.11,2.11,0,0,1-1.37-.58L243.2,56.12a2,2,0,0,1-.91-1.57c0-1.1,1.5-3,2.67-3a2.39,2.39,0,0,1,1.36.65l12,9.69a2.1,2.1,0,0,1,.91,1.56A2.77,2.77,0,0,1,258.48,65.21Z"/><path class="cls-1" d="M279.8,32c-.46,1.36-1,2-1.89,2a2.59,2.59,0,0,1-1-.2l-8.06-2.6c-1-.32-1.56-.84-1.56-1.82,0-1.23.71-3.18,2.14-3.18a2.56,2.56,0,0,1,.91.19l8,2.54c1,.32,1.62.91,1.62,1.88A4.46,4.46,0,0,1,279.8,32Zm.32,11.18-7.34,23.08c-.33,1-.85,1.62-1.82,1.62-1.3,0-3.32-.78-3.32-2.27a2.84,2.84,0,0,1,.19-1l7.35-23.14c.33-1,.85-1.63,1.89-1.63,1.3,0,3.25.78,3.25,2.35A2.63,2.63,0,0,1,280.12,43.18Zm-.26-26.39c-.39,1.23-1,1.75-1.82,1.75a3.24,3.24,0,0,1-1-.19l-7.21-2.93c-1-.39-1.43-.91-1.43-1.82,0-1.17.71-3.18,2.08-3.18a3.29,3.29,0,0,1,1,.19l7.21,3a1.93,1.93,0,0,1,1.43,1.89A3.7,3.7,0,0,1,279.86,16.79Zm43.75.19H290.2l-2.6,8.71c-.33,1-.91,1.63-1.89,1.63-1.3,0-3.38-.65-3.38-2.08a2.64,2.64,0,0,1,.2-1l4.22-14a2,2,0,0,1,2.08-1.69c1.24,0,3.19.46,3.19,2a2.64,2.64,0,0,1-.2,1l-.13.52h31.92c1.43,0,2.21.65,2.21,2.53S325,17,323.61,17Zm.06,28.6h-1.36l-.65,20.68a2.25,2.25,0,0,1-2.47,1.88,2.1,2.1,0,0,1-2.34-1.82l.06-2.6H290.2c-2.6,0-4.29-1.5-4.16-4l.84-14.17h-1.49c-1.43,0-2.08-.58-2.08-2.4s.65-2.47,2.08-2.47h1.82l.84-13.33a4.67,4.67,0,0,1,4.81-4.61h25.68c2.66,0,4.42,1.43,4.35,4.09l-.45,13.85h1.23c1.43,0,2.15.65,2.15,2.47S325.1,45.58,323.67,45.58Zm-31.91,0-.85,13.33h10.47l.78-13.33Zm1.1-18.07L292,40.71h10.46l.78-13.2Zm13.91,18.07-.71,13.33h11.05l.39-13.33Zm1-18.07-.71,13.2h10.59l.39-13.2Z"/><path class="cls-1" d="M384.12,67H338.88A4.83,4.83,0,0,1,334,62.1V14.77c0-2.73,2.15-4.48,4.88-4.48h45.24c2.73,0,4.88,1.75,4.88,4.48V62.1A4.83,4.83,0,0,1,384.12,67Zm-.06-52.07H339V62.42h45.05Zm-6.83,41.28H345.77c-1.36,0-2-.59-2-2.34s.65-2.34,2-2.34h13.39V40.25h-11c-1.3,0-1.95-.52-1.95-2.27s.65-2.34,1.95-2.34h11V26H346.49c-1.37,0-2-.58-2-2.34s.65-2.34,2-2.34h30c1.36,0,2.08.59,2.08,2.34S377.88,26,376.52,26H363.91v9.69h10.92c1.3,0,2,.58,2,2.34s-.71,2.27-2,2.27H363.91V51.5h13.32c1.37,0,2.08.58,2.08,2.34S378.6,56.18,377.23,56.18Zm-3.57-6a1.48,1.48,0,0,1-1.43-1l-2.08-4.48a1.72,1.72,0,0,1-.26-.91c0-1,1.56-1.76,2.47-1.76a1.57,1.57,0,0,1,1.49,1.11l2.08,4.42a1.72,1.72,0,0,1,.26.91C376.19,49.42,374.57,50.13,373.66,50.13Z"/><path class="cls-1" d="M453.61,66.91H399.27c-1.44,0-2.15-.59-2.15-2.54s.71-2.54,2.15-2.54h33.28l7.73-33.15a2,2,0,0,1,2.21-1.88c1.24,0,3.19.45,3.19,2a5,5,0,0,1-.13.85L438,61.83h15.6c1.43,0,2.21.66,2.21,2.54S455,66.91,453.61,66.91Zm-2-45.18H401.28c-1.49,0-2.21-.59-2.21-2.54s.72-2.6,2.21-2.6h22.56V11.52c0-1.56.65-2.34,2.66-2.34s2.67.78,2.67,2.34v5.07h22.42c1.5,0,2.28.65,2.28,2.6S453.09,21.73,451.59,21.73ZM412.92,57.15c-1.43,0-2-.65-2.21-2l-3.58-26.07c0-1.82,1.76-2.21,3.25-2.21s1.95.65,2.15,2L416,54.42c0,.2.06.39.06.53C416.1,56.77,414.41,57.15,412.92,57.15Z"/><path class="cls-1" d="M518.41,28.88H493.19L468.82,66.06A2.27,2.27,0,0,1,467,67.29c-1.24,0-3.58-1.49-3.58-2.79a2.79,2.79,0,0,1,.52-1.43l22.43-34.19H464.46c-1.56,0-2.34-.65-2.34-2.73s.78-2.8,2.34-2.8h24.18V11.72c0-1.69.72-2.54,2.86-2.54s2.86.85,2.86,2.54V23.35h24c1.56,0,2.41.72,2.41,2.8S520,28.88,518.41,28.88Zm-2.34,38.48c-.71,0-1.23-.45-1.75-1.24L497.09,38.43a2.65,2.65,0,0,1-.45-1.43c0-1.3,2.08-2.73,3.38-2.73.71,0,1.23.46,1.75,1.24l17.29,27.56a2.58,2.58,0,0,1,.46,1.43C519.52,65.8,517.37,67.36,516.07,67.36Z"/><path class="cls-1" d="M583.22,31.22c-2,0-2.54-.72-2.54-2.21v-5.4H532.39V29c0,1.49-.65,2.21-2.6,2.21s-2.54-.72-2.54-2.21V23.09a4.19,4.19,0,0,1,4.49-4.48h38.74l2.79-7.48a2.06,2.06,0,0,1,2-1.62c1.17,0,3.12.65,3.12,2a3.22,3.22,0,0,1-.2,1l-2.21,6h5.33a4.2,4.2,0,0,1,4.49,4.48V29C585.82,30.5,585.17,31.22,583.22,31.22Zm.39,20.41h-24v12c0,2.73-1.43,4.16-4.16,4.16H544.15c-1.43,0-2.14-.58-2.14-2.54s.71-2.53,2.14-2.53h10.08v-11H529.4c-1.44,0-2.15-.59-2.15-2.47s.71-2.54,2.15-2.54h24.83V43.31a3.82,3.82,0,0,1,1.69-3.06l10.14-5.33H539.47c-1.43,0-2.08-.58-2.08-2.4s.65-2.47,2.08-2.47h29.58c3,0,4.55,1.88,4.55,3.77a3.48,3.48,0,0,1-1.76,3l-12.22,6.76v3h24c1.43,0,2.21.65,2.21,2.54S585,51.63,583.61,51.63ZM538,18.41a1.87,1.87,0,0,1-1.89-1.56l-1.3-4.09a5,5,0,0,1-.13-.85c0-1.43,1.82-1.95,3-1.95a1.88,1.88,0,0,1,2,1.56l1.3,4a2.59,2.59,0,0,1,.2.91C541.1,17.89,539.15,18.41,538,18.41Zm17.22,0c-1,0-1.56-.52-1.88-1.56l-1.43-4.68a4,4,0,0,1-.13-.84c0-1.43,1.88-1.95,3-1.95s1.56.52,1.89,1.56l1.36,4.68a4,4,0,0,1,.13.84C558.19,17.89,556.37,18.41,555.2,18.41Z"/><path class="cls-1" d="M608.63,45.19a1.53,1.53,0,0,1-1.36-.9l-3.58-6.18V65.74c0,1.36-.65,2-2.4,2s-2.34-.65-2.34-2V35.31l-3.71,15.41c-.2.84-.58,1.36-1.43,1.36-1.1,0-2.66-.58-2.66-1.88a2.61,2.61,0,0,1,.06-.65l5.2-20.93a1.59,1.59,0,0,1,1.5-1.43,2,2,0,0,1,1,.26V24.13H594.2c-1.43,0-2.15-.58-2.15-2.47s.72-2.53,2.15-2.53H599V11.2c0-1.37.58-2.08,2.34-2.08s2.4.71,2.4,2.08v7.93h4.49c1.43,0,2.21.65,2.21,2.53s-.78,2.47-2.21,2.47h-4.49V34a2.5,2.5,0,0,1,1.17-.39c.52,0,.91.33,1.3.91l4.68,7.61a1.89,1.89,0,0,1,.39,1.1C611.23,44.22,609.54,45.19,608.63,45.19Zm16.77-5.33A1.26,1.26,0,0,1,624,38.63l-.13-.78H613.12c-1,0-1.69-.52-1.69-1.56V34.86a4.65,4.65,0,0,1,.71-2.21l3.9-6.18-3.51-1.17a1.88,1.88,0,0,1-1.23-1.69V21.86a5,5,0,0,1,.65-2.21l5.52-9.56a1.44,1.44,0,0,1,1.3-.71A2.09,2.09,0,0,1,621,11.26a1.06,1.06,0,0,1-.13.65l-5.85,10,3.32,1,3.83-6.11a1.45,1.45,0,0,1,1.3-.65,2.2,2.2,0,0,1,2.21,1.95,1.34,1.34,0,0,1-.19.72L616.3,33.75h6.89l-.91-5.59c0-1.17,1.11-1.49,2.08-1.49s1.3.45,1.43,1.36l1.69,10v.39C627.48,39.6,626.38,39.86,625.4,39.86Zm23.47,7.35h-10L642.76,54l2.66-2.6a2.11,2.11,0,0,1,1.24-.65A3,3,0,0,1,649,53.19a1.88,1.88,0,0,1-.72,1.3L645,57.74l4,7.09a1.91,1.91,0,0,1,.32,1.1c0,1.11-1.82,2.15-2.79,2.15a1.73,1.73,0,0,1-1.43-1L641.65,61l-5.85,5.79a1.68,1.68,0,0,1-1.17.58c-.91,0-2.27-1.56-2.27-2.47a1.9,1.9,0,0,1,.65-1.23l6.5-6.44-5.66-10H622.22l-2,6.24,7.67,7.6a1.9,1.9,0,0,1,.72,1.31,3.22,3.22,0,0,1-2.47,2.47,1.82,1.82,0,0,1-1.24-.65l-6.11-6.12-2.66,8.39a1.6,1.6,0,0,1-1.63,1.37c-1,0-2.79-.59-2.79-1.82a4.1,4.1,0,0,1,.13-.85l5.72-17.94h-4.23c-1.3,0-1.88-.52-1.88-2.21s.58-2.28,1.88-2.28h18l-2.47-4.35A6,6,0,0,1,628.2,36V11.13c0-1.3.52-2,2.21-2s2.21.65,2.21,2V36.22l3.7,6.5h5.4L641.39,41c0-1.24,1.3-1.63,2.28-1.63s1.43.52,1.62,1.43l.39,1.95h3.19c1.3,0,2,.59,2,2.28S650.17,47.21,648.87,47.21Zm.06-7.41a1.29,1.29,0,0,1-1.43-1.24l-.13-.71H636.26c-1,0-1.69-.52-1.69-1.56V34.86a4.65,4.65,0,0,1,.71-2.21l4-6.18-3.58-1.17a1.88,1.88,0,0,1-1.23-1.69V21.86a5,5,0,0,1,.65-2.21l5.52-9.56a1.44,1.44,0,0,1,1.3-.71,2.09,2.09,0,0,1,2.21,1.88,1.06,1.06,0,0,1-.13.65l-5.85,10,3.32,1,3.83-6.11a1.45,1.45,0,0,1,1.3-.65,2.2,2.2,0,0,1,2.21,1.95,1.34,1.34,0,0,1-.19.72l-9.17,14.88h7.22l-1-6c0-1.11,1.17-1.37,2.08-1.37a1.37,1.37,0,0,1,1.5,1.37L651,38v.39C651,39.54,649.91,39.8,648.93,39.8Z"/><path class="cls-1" d="M676.17,45c-.52,0-.91-.33-1.3-.91l-4.62-7V65.67c0,1.43-.65,2.08-2.47,2.08s-2.47-.65-2.47-2.08V34l-4.68,17c-.26.91-.71,1.43-1.56,1.43-1.11,0-2.92-.71-2.92-2a4.2,4.2,0,0,1,.13-.85l5.91-20.8c.26-.91.72-1.43,1.56-1.43a4.32,4.32,0,0,1,1.56.39V24.13h-6c-1.44,0-2.15-.58-2.15-2.47s.71-2.53,2.15-2.53h6V11.26c0-1.43.59-2.14,2.47-2.14s2.47.71,2.47,2.14v7.87h5.59c1.43,0,2.21.65,2.21,2.53s-.78,2.47-2.21,2.47h-5.59v9.36c.07,0,.07-.06.13-.06a2.73,2.73,0,0,1,1.43-.52c.52,0,.91.32,1.3.91l5.27,7.93a2.07,2.07,0,0,1,.39,1.1C678.77,43.89,677.08,45,676.17,45Zm38.15,15.93h-.78v4.74c0,1.43-.65,2.08-2.4,2.08s-2.41-.65-2.41-2.08V60.93H685.59v4.81c0,1.36-.58,2-2.34,2s-2.34-.65-2.34-2V60.93h-.65c-1.23,0-1.82-.52-1.82-2.15s.59-2.15,1.82-2.15h.65V42.07c0-2.73,1.76-4.16,4.49-4.16H695V34.08H680.39c-1.23,0-1.82-.52-1.82-2.15s.59-2.14,1.82-2.14h5.53V25.24h-2.73c-1.24,0-1.82-.52-1.82-2.08S682,21,683.19,21h2.73V16.4h-4.49c-1.23,0-1.82-.52-1.82-2.15s.59-2.14,1.82-2.14h4.49v-.85c0-1.36.58-2.08,2.34-2.08s2.4.72,2.4,2.08v.85h13.07v-.85c0-1.36.58-2.08,2.34-2.08s2.4.72,2.4,2.08v.85h4.42c1.24,0,1.89.58,1.89,2.14s-.65,2.15-1.89,2.15h-4.42V21h2.67c1.23,0,1.88.59,1.88,2.15s-.65,2.08-1.88,2.08h-2.67v4.55h5.46c1.24,0,1.89.58,1.89,2.14s-.65,2.15-1.89,2.15H699.24v3.83h9.82c2.73,0,4.48,1.43,4.48,4.16V56.63h.78c1.24,0,1.89.59,1.89,2.15S715.56,60.93,714.32,60.93ZM695,42.14h-9.43v5.2H695Zm0,9.36h-9.43v5.13H695Zm8.71-35.1H690.66V21h13.07Zm0,8.84H690.66v4.55h13.07Zm5,16.9h-9.49v5.2h9.49Zm0,9.36h-9.49v5.13h9.49Z"/><path class="cls-1" d="M376.91,131.29H361.83a1.46,1.46,0,0,0-1.56,1l-5.14,19.77c-.65,2.6-2,3.51-4.74,3.51h-7.8c-1.3,0-1.89-.52-1.89-2.6s.52-2.67,1.89-2.67h5.85a1.86,1.86,0,0,0,2.08-1.63l5.2-19.76c.58-2.21,1.69-3,4.09-3h15.54c4.81,0,7.28-3.12,7.28-7.86v-6c0-1.17-.2-2.21-2.21-2.21H337c-1.3,0-1.89-.59-1.89-2.67s.52-2.66,1.89-2.66h45.69c4.23,0,5.27,1.3,5.27,5.2v9.68C388,125.05,385.29,131.29,376.91,131.29Z"/><path class="cls-1" d="M444.38,155.61H433.07c-1.3,0-1.89-.59-1.89-2.6s.52-2.67,1.89-2.67h8.58c1.88,0,2.47-1,2.47-2.73V119.07a1.94,1.94,0,0,0-2.21-2.21h-23.6v13c0,4-.13,5.72-2.21,9.43l-8.9,15.92c-.33.53-.65.85-1.17.85-1,0-3.71-1.49-3.71-2.6a2.22,2.22,0,0,1,.39-1.1l8.52-15.48c1.56-2.79,1.69-4.16,1.69-7.8V116.86H401.74c-1.24,0-1.89-.52-1.89-2.66s.59-2.67,1.89-2.67h11.18v-6.69c0-1.37.52-1.89,2.73-1.89s2.66.59,2.66,1.89v6.69h25.87c3.58,0,5.33,1.76,5.33,5.2V150C449.51,153.72,447.63,155.61,444.38,155.61Z"/><path class="cls-1" d="M516.2,128.37H501v8.19a9.71,9.71,0,0,1-1.88,6.24l-5.92,9.62c-1.49,2.41-2.79,3.05-6.17,3.05H469.4c-1.23,0-1.88-.51-1.88-2.53s.58-2.66,1.88-2.66h16.45c1.69,0,2.47-.33,3.12-1.43l5.52-9.17a5.83,5.83,0,0,0,1.11-3.77v-7.54h-29c-1.24,0-1.89-.59-1.89-2.67s.59-2.66,1.89-2.66H516.2c1.3,0,1.89.52,1.89,2.66S517.57,128.37,516.2,128.37Zm-8.06-18.2H468.43c-1.31,0-1.89-.52-1.89-2.67s.52-2.66,1.89-2.66h39.91c1.23,0,1.69.58,1.69,2.66S509.57,110.17,508.14,110.17Zm2.73-6.63h-2.4a1.27,1.27,0,0,1-1.3-1.3V100a1.27,1.27,0,0,1,1.3-1.3h2.4a1.27,1.27,0,0,1,1.3,1.3v2.28A1.3,1.3,0,0,1,510.87,103.54Zm8.45,0h-2.4a1.3,1.3,0,0,1-1.3-1.3V100a1.27,1.27,0,0,1,1.3-1.3h2.4a1.23,1.23,0,0,1,1.3,1.3v2.28A1.27,1.27,0,0,1,519.32,103.54Z"/><path class="cls-1" d="M578.93,115.11h-9a9,9,0,0,1-1.95-.2L534,108.15c-1.17-.26-1.76-.52-1.76-1.69s.27-3.57,1.57-3.57a1.91,1.91,0,0,1,.58.06l33.15,6.57a12.72,12.72,0,0,0,2.67.26h8.71c1.23,0,1.88.58,1.88,2.66S580.23,115.11,578.93,115.11Zm0,20.28h-9a9,9,0,0,1-1.95-.2L534,128.5c-1.17-.26-1.76-.52-1.76-1.76s.27-3.57,1.57-3.57a1.91,1.91,0,0,1,.58.06l33.15,6.63a12,12,0,0,0,2.67.2h8.71c1.23,0,1.88.58,1.88,2.66S580.23,135.39,578.93,135.39Zm0,20.22h-9a9,9,0,0,1-1.95-.2L534,148.71c-1.17-.25-1.76-.51-1.76-1.75,0-1,.27-3.51,1.57-3.51a1.91,1.91,0,0,1,.58.06l33.15,6.57a12.09,12.09,0,0,0,2.67.26h8.71c1.23,0,1.88.52,1.88,2.67S580.23,155.61,578.93,155.61Z"/><path class="cls-1" d="M603.24,134.74c-1.63,0-2.15-.39-2.15-1.5v-9a4.65,4.65,0,0,0-1-3.58l-1.88-2.6a2.12,2.12,0,0,1-.46-1c0-.91,2.08-2.21,2.86-2.21a1.43,1.43,0,0,1,1.17.78l2.28,3c1.43,1.88,1.43,2.34,1.43,4.81v9.81C605.45,134.29,604.93,134.74,603.24,134.74Zm36,7.67-7.93,10.66c-1.43,2-2.73,2.54-5.27,2.54H605.77c-1,0-1.56-.59-1.56-2.22s.46-2.2,1.56-2.2H625c1.23,0,1.95-.14,2.6-1.05l7.6-10.26c1-1.31,1-1.89,1-3.78v-20c0-.91.78-1.36,2.34-1.36s2.41.39,2.41,1.56v20.47C640.94,139.22,640.74,140.39,639.25,142.41Zm-20.74-7.67c-1.62,0-2.14-.39-2.14-1.5v-9a4.65,4.65,0,0,0-1-3.58l-1.89-2.6a2.09,2.09,0,0,1-.45-1c0-.91,2.08-2.21,2.86-2.21a1.44,1.44,0,0,1,1.17.78l2.27,3c1.43,1.88,1.43,2.34,1.43,4.81v9.81C620.72,134.29,620.2,134.74,618.51,134.74Z"/><path class="cls-1" d="M709.45,137.73l-11.31,14.76c-1.89,2.4-3.32,3.12-6.5,3.12H668.89c-1.24,0-1.89-.59-1.89-2.6s.59-2.67,1.89-2.67H690.6a3.59,3.59,0,0,0,3.31-1.56l10.79-14.11c1.17-1.56,1.37-2.34,1.37-4.74V112.12a2,2,0,0,0-2.21-2.21h-23.6a2.3,2.3,0,0,0-2.08.84l-10.07,12.48a3.81,3.81,0,0,1-2.8,1.43h-4.48c-1.3,0-1.89-.45-1.89-2.66s.46-2.67,1.89-2.67h3c.71,0,1-.06,1.69-1l9.94-12.42a4.18,4.18,0,0,1,3.25-1.36h27.5c3.51,0,5.26,1.75,5.26,5.39v20.8C711.46,133.83,711.33,135.26,709.45,137.73Z"/><path class="cls-1" d="M451.33,218.69,448.54,223c-1.37,2.08-2.6,2.93-6.05,2.93H426.44c-1.24,0-1.76-.65-1.76-2.47,0-2,.46-2.73,1.76-2.73h14.75c1.69,0,2.34-.33,3-1.3l2.34-3.51a4.93,4.93,0,0,0,1-3.45v-3.7a2,2,0,0,0-2.27-2.21H410.12v24.89c0,7.42,1.89,8.91,8.91,8.91h30c1.3,0,1.95.52,1.95,2.67s-.59,2.6-1.95,2.6H417.4c-9.16,0-12.67-3.19-12.67-12.74V206.54H401c-1.17,0-1.82-.59-1.82-2.86,0-2,.65-2.47,1.82-2.47h3.71v-6.05c0-1.3.58-1.88,2.66-1.88s2.73.52,2.73,1.88v6.05h37.51c3.51,0,5.33,1.75,5.33,5.26v6.7A8.19,8.19,0,0,1,451.33,218.69Z"/><path class="cls-1" d="M514.32,229.16l-9.88,13.26c-1.82,2.41-3.32,3.19-6.76,3.19H467.45c-1.3,0-1.88-.59-1.88-2.6s.51-2.67,1.88-2.67H496.9a3.53,3.53,0,0,0,3.25-1.49L509.57,226c1.17-1.56,1.37-2.34,1.37-4.75V195.16c0-1.17.78-1.82,2.66-1.82s2.73.52,2.73,2v26.85C516.33,225.32,516.2,226.62,514.32,229.16ZM492,203.94H468.88c-1.3,0-1.95-.59-1.95-2.67s.59-2.66,1.95-2.66H492c1.3,0,2,.52,2,2.66S493.32,203.94,492,203.94Z"/><path class="cls-1" d="M580.94,227.79h-7.41a7.05,7.05,0,0,1-3.25-.58l-27.69-12.16v29.19c0,1.3-.58,1.88-2.73,1.88s-2.66-.51-2.66-1.88V195.16c0-1.3.58-1.88,2.66-1.88s2.73.52,2.73,1.88v14.17l29.25,12.74a5.06,5.06,0,0,0,1.95.46h7.15c1.3,0,1.95.52,1.95,2.73S582.31,227.79,580.94,227.79Z"/><path class="cls-1" d="M644.51,232.28,636,242.55c-1.89,2.28-3,3.06-6.24,3.06h-28.6c-1.24,0-1.89-.59-1.89-2.6s.59-2.67,1.89-2.67h27.36a3.85,3.85,0,0,0,3.38-1.56l7.74-9.23c1.17-1.37,1.36-2,1.36-4.09v-8.13a1.94,1.94,0,0,0-2.14-2.21h-40c-1.5,0-2-.65-2-2.67s.45-2.66,2.08-2.66H641.2c3.51,0,5.2,1.82,5.2,5.33v11C646.4,229.29,646.2,230.26,644.51,232.28Zm-1.69-32.37H600c-1.24,0-1.89-.59-1.89-2.67s.59-2.66,1.89-2.66h42.83c1.3,0,1.89.58,1.89,2.66S644.19,199.91,642.82,199.91Z"/><path class="cls-1" d="M670.32,226.88l-7.22,17.36c-.26,1-.65,1.56-1.62,1.56s-3.65-.59-3.65-1.88a2.55,2.55,0,0,1,.2-.91l7.15-17a16.14,16.14,0,0,0,1.56-7.73v-23c0-1.3.52-1.95,2.67-1.95s2.73.59,2.73,1.95v22.88A18.59,18.59,0,0,1,670.32,226.88Zm38.48,14.76a5.18,5.18,0,0,1-4.94,4H692.48c-3.7,0-5.72-2.15-5.72-5.79V195.16c0-1.3.59-1.88,2.73-1.88s2.67.52,2.67,1.88v42.9a2.05,2.05,0,0,0,2.27,2.28h7a2.47,2.47,0,0,0,2.8-2.14L710,216.74a1.84,1.84,0,0,1,2-1.62c1.11,0,3.32.32,3.32,1.75a3.68,3.68,0,0,1-.13.72Z"/></g></svg>