<?xml version="1.0" encoding="utf-8"?>
<!-- Generator: Adobe Illustrator 25.4.1, SVG Export Plug-In . SVG Version: 6.00 Build 0)  -->
<svg version="1.1" id="レイヤー_1" xmlns="http://www.w3.org/2000/svg" xmlns:xlink="http://www.w3.org/1999/xlink" x="0px"
	 y="0px" viewBox="0 0 768.3 274.9" style="enable-background:new 0 0 768.3 274.9;" xml:space="preserve">
<style type="text/css">
	.st0{fill:#002C76;stroke:#002C76;stroke-miterlimit:10;}
	.st1{fill:#002C76;}
</style>
<polygon class="st0" points="90.2,0.5 0.7,274.4 51,274.4 139.6,37.4 215.6,274.4 246,274.4 164,0.5 "/>
<polygon class="st1" points="172.4,148.7 177.6,164.5 113.6,163.4 107.7,184.3 184.2,185.5 189.9,200 82.6,198.7 100.2,148.7 "/>
<path class="st0" d="M305.9,96.9h-17.4v7.2h13.2c1.9,0,3,1.9,3,5.4v22.5c0,3.5-1,5.4-3,5.4h-13.2v20.6c0,2-0.5,3-1.9,3s-1.9-1-1.9-3
	v-20.6h-0.3l-14.8,21.2c-0.2,0.4-0.6,0.7-0.9,0.8c-0.8,0-1.8-2.6-1.8-4.1c0-0.9,0.3-1.6,0.7-2.1l11.1-15.8h-7.3c-1.9,0-3-1.9-3-5.4
	v-22.5c0-3.5,1-5.4,3-5.4h13.2v-7.2h-17.5c-1,0-1.4-0.8-1.4-3c0-2.3,0.5-3,1.4-3h17.5v-2.6c0-2,0.5-3.1,1.9-3.1s1.9,1.1,1.9,3.1v2.6
	h17.4c1,0,1.5,0.8,1.5,3C307.4,96.1,306.8,96.9,305.9,96.9z M284.6,110.2h-12.4v7.6h12.5L284.6,110.2z M284.6,123.7h-12.4v7.6h12.5
	L284.6,123.7z M300.9,110.2h-12.4v7.6h12.4L300.9,110.2z M300.9,123.7h-12.4v7.6h12.4L300.9,123.7z M305.7,157.8
	c-0.5,1.1-0.9,1.6-1.3,1.6c-0.4,0-0.7-0.3-1-0.8l-8.6-12.6c-0.4-0.5-0.6-1.2-0.6-2c0-1.4,1.1-3.9,1.9-3.9c0.4,0.1,0.7,0.4,1,0.8
	l8.5,12.6c0.4,0.5,0.6,1.2,0.6,2C306.2,156.3,306,157.1,305.7,157.8L305.7,157.8z"/>
<path class="st0" d="M320.8,114.7c-0.3,1.8-0.7,2.5-1.3,2.5c-0.2,0-0.5-0.1-0.7-0.3l-5.7-3.4c-0.7-0.4-1.1-1.1-1.1-2.4
	c0-1.6,0.5-4.1,1.5-4.1c0.2,0,0.4,0.1,0.6,0.2l5.7,3.3c0.7,0.4,1.2,1.2,1.2,2.4C321,113.7,320.9,114.2,320.8,114.7z M321.1,129.2
	l-5.2,29.9c-0.2,1.3-0.6,2.1-1.3,2.1c-0.9,0-2.3-1-2.3-2.9c0-0.4,0-0.9,0.1-1.3l5.2-30c0.2-1.3,0.6-2.1,1.3-2.1c0.9,0,2.3,1,2.3,3
	C321.2,128.4,321.1,128.8,321.1,129.2L321.1,129.2z M320.9,95c-0.3,1.6-0.7,2.3-1.3,2.3c-0.2,0-0.5-0.1-0.7-0.2l-5.1-3.8
	c-0.7-0.5-1-1.2-1-2.4c0-1.5,0.5-4.1,1.5-4.1c0.2,0,0.5,0.1,0.7,0.2l5.1,3.9c0.6,0.3,1,1.3,1,2.5C321,93.9,321,94.5,320.9,95
	L320.9,95z M351.9,95.2h-23.7l-1.8,11.3c-0.2,1.3-0.6,2.1-1.3,2.1c-0.9,0-2.4-0.8-2.4-2.7c0-0.4,0-0.9,0.1-1.3l3-18.2
	c0.1-1.3,0.7-2.3,1.5-2.2c0.9,0,2.3,0.6,2.3,2.5c0,0.4,0,0.9-0.1,1.3l-0.1,0.7h22.6c1,0,1.6,0.8,1.6,3.3S352.9,95.3,351.9,95.2
	L351.9,95.2z M352,132.3h-1l-0.5,26.8c-0.1,1.5-0.9,2.6-1.8,2.4c-0.8,0.2-1.6-0.9-1.7-2.4l0-3.4h-19c-1.8,0-3-1.9-3-5.2l0.6-18.4
	h-1.1c-1,0-1.5-0.8-1.5-3.1c0-2.4,0.5-3.2,1.5-3.2h1.3l0.6-17.3c0-3.3,1.5-6,3.4-6c0,0,0,0,0.1,0h18.2c1.9,0,3.1,1.9,3.1,5.3
	l-0.3,18h0.9c1,0,1.5,0.8,1.5,3.2C353.5,131.5,353,132.3,352,132.3L352,132.3z M329.3,132.3l-0.6,17.3h7.4l0.6-17.3H329.3z
	 M330.1,108.9l-0.6,17.1h7.4l0.6-17.1H330.1z M340,132.3l-0.5,17.3h7.8l0.3-17.3L340,132.3z M340.7,108.9l-0.5,17.1h7.5l0.3-17.1
	H340.7z"/>
<path class="st0" d="M394.9,160.1h-32.1c-1.9,0-3.4-2.8-3.4-6.3c0,0,0-0.1,0-0.1V92.4c0-3.5,1.5-5.8,3.5-5.8h32.1
	c1.9,0,3.5,2.3,3.5,5.8v61.4c0,3.5-1.5,6.3-3.4,6.4C394.9,160.1,394.9,160.1,394.9,160.1z M394.8,92.5h-31.9v61.6h31.9V92.5z
	 M390,146.1h-22.3c-1,0-1.4-0.8-1.4-3c0-2.3,0.5-3,1.4-3h9.5v-14.6h-7.8c-0.9,0-1.4-0.7-1.4-2.9s0.5-3,1.4-3h7.8v-12.5h-9
	c-1,0-1.4-0.8-1.4-3c0-2.3,0.5-3,1.4-3h21.3c1,0,1.5,0.8,1.5,3s-0.5,3-1.5,3h-8.9v12.6h7.7c0.9,0,1.4,0.8,1.4,3
	c0,2.3-0.5,2.9-1.4,2.9h-7.7V140h9.5c1,0,1.5,0.8,1.5,3C391.4,145.3,390.9,146.1,390,146.1z M387.4,138.2c-0.5,0-0.9-0.5-1-1.3
	l-1.5-5.8c-0.1-0.4-0.2-0.8-0.2-1.2c0-1.3,1.1-2.3,1.8-2.3c0.5,0,0.9,0.6,1.1,1.4l1.5,5.7c0.1,0.4,0.2,0.8,0.2,1.2
	C389.2,137.3,388.1,138.2,387.4,138.2L387.4,138.2z"/>
<path class="st0" d="M444.2,160h-38.6c-1,0-1.5-0.8-1.5-3.3s0.5-3.3,1.5-3.3h23.6l5.5-43c0-1.4,0.7-2.5,1.5-2.4c0,0,0,0,0.1,0
	c0.9,0,2.3,0.6,2.3,2.6c0,0.4,0,0.7-0.1,1.1l-5.3,41.7h11.1c1,0,1.6,0.9,1.6,3.3C445.8,159.1,445.2,160,444.2,160z M442.7,101.4H407
	c-1.1,0-1.6-0.8-1.6-3.3s0.5-3.4,1.6-3.4h16v-6.6c0-2,0.5-3,1.9-3c1.4,0,1.9,1,1.9,3v6.6h15.9c1.1,0,1.6,0.8,1.6,3.4
	S443.8,101.4,442.7,101.4L442.7,101.4z M415.3,147.3c-1,0-1.4-0.8-1.6-2.6l-2.5-33.8c0-2.4,1.2-2.9,2.3-2.9s1.4,0.8,1.5,2.6
	l2.5,33.1c0,0.3,0,0.5,0,0.7C417.6,146.8,416.4,147.3,415.3,147.3L415.3,147.3z"/>
<path class="st0" d="M490.2,110.7h-17.9L455,158.9c-0.2,0.9-0.7,1.5-1.3,1.6c-0.9,0-2.5-1.9-2.5-3.6c0-0.7,0.2-1.3,0.4-1.9
	l15.9-44.3h-15.5c-1.1,0-1.7-0.8-1.7-3.5c0-2.7,0.6-3.6,1.7-3.6H469V88.4c0-2.2,0.5-3.3,2-3.3s2,1.1,2,3.3v15.1h17.1
	c1.1,0,1.7,0.9,1.7,3.6C491.9,109.8,491.3,110.7,490.2,110.7z M488.5,160.6c-0.5,0-0.9-0.6-1.2-1.6L475,123.1
	c-0.2-0.5-0.3-1.2-0.3-1.9c0-1.7,1.5-3.5,2.4-3.5c0.5,0,0.9,0.6,1.2,1.6l12.3,35.7c0.2,0.5,0.3,1.2,0.3,1.9
	C490.9,158.5,489.4,160.6,488.5,160.6z"/>
<path class="st0" d="M536.1,113.7c-1.4,0-1.8-0.9-1.8-2.9v-7h-34.3v7c0,1.9-0.5,2.9-1.8,2.9c-1.4,0-1.8-0.9-1.8-2.9v-7.7
	c-0.1-3,1.1-5.6,2.8-5.8c0.1,0,0.3,0,0.4,0h27.5l2-9.7c0.1-1.2,0.7-2.1,1.4-2.1c0.8,0,2.2,0.8,2.2,2.6c0,0.4-0.1,0.9-0.1,1.3
	l-1.5,7.9h3.8c1.6-0.2,3.1,2,3.2,5c0,0.3,0,0.5,0,0.8v7.7C538,112.8,537.5,113.7,536.1,113.7z M536.4,140.2h-17v15.6
	c0,3.5-1,5.4-3,5.4h-8c-1,0-1.5-0.8-1.5-3.3c0-2.5,0.5-3.3,1.5-3.3h7.1v-14.4h-17.6c-1,0-1.5-0.8-1.5-3.2s0.5-3.3,1.5-3.3h17.6v-4.3
	c0-1.6,0.5-3.1,1.2-4l7.2-6.9h-18.9c-1,0-1.5-0.8-1.5-3.1c0-2.4,0.5-3.2,1.5-3.2h21c2.1,0,3.2,2.4,3.2,4.9c0,1.6-0.5,3.1-1.2,4
	l-8.7,8.8v3.9h17c1,0,1.6,0.8,1.6,3.3S537.4,140.2,536.4,140.2z M504,97.1c-0.7,0-1.2-0.8-1.3-2l-0.9-5.3c-0.1-0.4-0.1-0.7-0.1-1.1
	c0-1.9,1.3-2.5,2.1-2.5c0.7-0.1,1.3,0.8,1.4,2l0.9,5.2c0.1,0.4,0.1,0.8,0.1,1.2C506.2,96.4,504.9,97.1,504,97.1z M516.3,97.1
	c-0.7,0-1.1-0.7-1.3-2l-1-6.1c0-0.4-0.1-0.7-0.1-1.1c0-1.9,1.3-2.6,2.2-2.6s1.1,0.7,1.3,2l1,6.1c0,0.4,0.1,0.7,0.1,1.1
	C518.4,96.4,517.1,97.1,516.3,97.1L516.3,97.1z"/>
<path class="st0" d="M554.2,131.8c-0.4,0-0.8-0.5-1-1.2l-2.5-8v35.8c0,1.8-0.5,2.6-1.7,2.6c-1.2,0-1.7-0.8-1.7-2.6V119l-2.6,20
	c-0.1,1.1-0.4,1.8-1,1.8c-0.8,0-1.9-0.8-1.9-2.4c0-0.3,0-0.6,0-0.8l3.7-27.1c0.1-1,0.5-1.8,1.1-1.9c0.2,0,0.5,0.1,0.7,0.3v-4.3h-3.4
	c-1,0-1.5-0.8-1.5-3.2s0.5-3.3,1.5-3.3h3.4V87.8c0-1.8,0.4-2.7,1.7-2.7c1.2,0,1.7,0.9,1.7,2.7V98h3.2c1,0,1.6,0.8,1.6,3.3
	c0,2.4-0.6,3.2-1.6,3.2h-3.2v12.8c0.2-0.3,0.5-0.5,0.8-0.5c0.4,0,0.6,0.4,0.9,1.2l3.3,9.9c0.2,0.4,0.3,0.9,0.3,1.4
	C556,130.6,554.8,131.8,554.2,131.8z M566.1,124.9c-0.5,0.1-0.9-0.6-1-1.5c0,0,0-0.1,0-0.1l-0.1-1h-7.7c-0.7,0-1.2-0.7-1.2-2v-1.9
	c0-1,0.2-2,0.5-2.9l2.8-8l-2.5-1.5c-0.5-0.3-0.9-1.2-0.9-2.2v-2.3c0-1,0.2-2,0.5-2.9l3.9-12.4c0.2-0.6,0.5-1,0.9-0.9
	c0.8-0.1,1.5,1,1.6,2.4c0,0.3,0,0.6-0.1,0.8l-4.2,13l2.3,1.3l2.7-7.9c0.2-0.6,0.6-0.9,0.9-0.8c0.8,0,1.5,1.1,1.6,2.6
	c0,0.3,0,0.7-0.1,0.9l-6.5,19.3h4.9l-0.6-7.2c0-1.5,0.8-1.9,1.5-1.9c0.7,0,0.9,0.6,1,1.8l1.2,13v0.5
	C567.6,124.6,566.8,124.9,566.1,124.9L566.1,124.9z M582.7,134.4h-7.1l2.7,8.8l1.9-3.4c0.2-0.5,0.5-0.8,0.9-0.8
	c0.9,0.3,1.5,1.6,1.7,3.2c0,0.7-0.2,1.3-0.5,1.7l-2.4,4.2l2.8,9.2c0.2,0.4,0.2,0.9,0.2,1.4c0,1.4-1.3,2.8-2,2.8
	c-0.4-0.1-0.8-0.6-1-1.3l-2.4-7.8l-4.2,7.5c-0.2,0.4-0.5,0.7-0.8,0.8c-0.8-0.4-1.5-1.7-1.6-3.2c0-0.6,0.2-1.2,0.5-1.6l4.6-8.3l-4-13
	h-8.2l-1.4,8.1l5.4,9.9c0.3,0.4,0.5,1,0.5,1.7c-0.2,1.6-0.9,2.9-1.8,3.2c-0.3-0.1-0.7-0.4-0.9-0.8l-4.3-7.9l-1.9,10.9
	c-0.1,1-0.6,1.8-1.1,1.8c-0.7,0-2-0.8-2-2.4c0-0.4,0-0.7,0.1-1.1l4.1-23.3h-3c-0.9,0-1.3-0.7-1.3-2.9s0.4-3,1.3-3h12.8l-1.8-5.6
	c-0.3-1-0.4-2-0.5-3.1V87.7c0-1.7,0.4-2.5,1.6-2.5c1.2,0,1.6,0.8,1.6,2.5v32.5l2.6,8.4h3.8l-0.2-2.3c0-1.6,0.9-2.1,1.6-2.1
	s1,0.7,1.2,1.9l0.3,2.5h2.3c0.9,0,1.4,0.8,1.4,3S583.6,134.4,582.7,134.4L582.7,134.4z M582.8,124.8c-0.5,0.1-1-0.6-1-1.5
	c0,0,0-0.1,0-0.1l-0.1-0.9h-7.9c-0.7,0-1.2-0.7-1.2-2v-1.9c0-1,0.2-2,0.5-2.9l2.8-8l-2.5-1.5c-0.5-0.3-0.9-1.2-0.9-2.2v-2.3
	c0-1,0.2-2,0.5-2.9l3.9-12.4c0.2-0.6,0.5-1,0.9-0.9c0.8-0.1,1.5,1,1.6,2.4c0,0.3,0,0.6-0.1,0.8l-4.2,13l2.3,1.3l2.7-7.9
	c0.2-0.6,0.6-0.9,0.9-0.8c0.8,0,1.5,1.1,1.6,2.6c0,0.3,0,0.7-0.1,0.9l-6.5,19.3h5.1l-0.7-7.8c0-1.4,0.8-1.8,1.5-1.8
	c0.5-0.1,1,0.6,1.1,1.6c0,0.1,0,0.1,0,0.2l1.3,13.3v0.5C584.3,124.5,583.5,124.8,582.8,124.8L582.8,124.8z"/>
<path class="st0" d="M602.1,131.6c-0.4,0-0.6-0.4-0.9-1.2l-3.3-9.1v37c0,1.9-0.5,2.7-1.8,2.7s-1.8-0.8-1.8-2.7v-41l-3.3,22
	c-0.2,1.2-0.5,1.9-1.1,1.9c-0.8,0-2.1-0.9-2.1-2.6c0-0.4,0-0.7,0.1-1.1l4.2-27c0.2-1.2,0.5-1.9,1.1-1.9c0.4,0,0.8,0.2,1.1,0.5v-4.6
	h-4.3c-1,0-1.5-0.8-1.5-3.2c0-2.5,0.5-3.3,1.5-3.3h4.3V88c0-1.9,0.4-2.8,1.8-2.8s1.8,0.9,1.8,2.8v10.2h4c1,0,1.6,0.8,1.6,3.3
	c0,2.4-0.6,3.2-1.6,3.2h-4v12.1c0,0,0-0.1,0.1-0.1c0.3-0.4,0.6-0.6,1-0.7c0.4,0,0.6,0.4,0.9,1.2l3.7,10.3c0.2,0.4,0.3,0.9,0.3,1.4
	C603.9,130.1,602.7,131.6,602.1,131.6z M629.2,152.2h-0.6v6.1c0,1.9-0.5,2.7-1.7,2.7c-1.2,0-1.7-0.8-1.7-2.7v-6.1h-16.4v6.2
	c0,1.8-0.4,2.6-1.7,2.6s-1.7-0.8-1.7-2.6v-6.2H605c-0.9,0-1.3-0.7-1.3-2.8s0.4-2.8,1.3-2.8h0.5v-18.9c0-3.5,1.2-5.4,3.2-5.4h6.9v-5
	h-10.4c-0.9,0-1.3-0.7-1.3-2.8s0.4-2.8,1.3-2.8h3.9V106h-1.9c-0.9,0-1.3-0.7-1.3-2.7c0-2,0.4-2.8,1.3-2.8h1.9v-6h-3.2
	c-0.9,0-1.3-0.7-1.3-2.8s0.4-2.8,1.3-2.8h3.2v-1.1c0-1.8,0.4-2.7,1.7-2.7s1.7,0.9,1.7,2.7v1.1h9.3v-1.1c0-1.8,0.4-2.7,1.7-2.7
	c1.2,0,1.7,0.9,1.7,2.7v1.1h3.1c0.9,0,1.3,0.8,1.3,2.8c0,2-0.5,2.8-1.3,2.8H625v6h1.9c0.9,0,1.3,0.8,1.3,2.8c0,2-0.5,2.7-1.3,2.7
	H625v5.9h3.9c0.9,0,1.3,0.8,1.3,2.8c0,2-0.5,2.8-1.3,2.8h-10.4v5h7c1.9,0,3.2,1.9,3.2,5.4v18.9h0.6c0.9,0,1.3,0.8,1.3,2.8
	S630.1,152.2,629.2,152.2L629.2,152.2z M615.5,127.9h-6.7v6.7h6.7V127.9z M615.5,140h-6.7v6.7h6.7V140z M621.7,94.5h-9.3v6h9.3
	L621.7,94.5z M621.7,106h-9.3v5.9h9.3L621.7,106z M625.2,127.9h-6.7v6.7h6.7V127.9z M625.2,140h-6.7v6.7h6.7V140z"/>
<path class="st0" d="M297.5,227.3h-10.7c-0.5-0.1-1,0.4-1.1,1.3l-3.6,25.6c-0.5,3.4-1.4,4.6-3.4,4.6h-5.5c-0.9,0-1.3-0.7-1.3-3.4
	s0.4-3.5,1.3-3.5h4.2c0.7,0.2,1.4-0.8,1.5-2.1c0,0,0,0,0,0l3.7-25.6c0.4-2.9,1.2-3.9,2.9-3.9h11c3.4,0,5.2-4,5.2-10.2v-7.8
	c0-1.5-0.1-2.9-1.6-2.9h-30.8c-0.9,0-1.3-0.8-1.3-3.5s0.4-3.4,1.3-3.4h32.4c3,0,3.7,1.7,3.7,6.7v12.5
	C305.3,219.2,303.4,227.3,297.5,227.3z"/>
<path class="st0" d="M345.4,258.8h-8c-0.9,0-1.3-0.8-1.3-3.4c0-2.6,0.4-3.5,1.3-3.5h6.1c1.3,0,1.8-1.3,1.8-3.5v-37
	c0.1-1.4-0.4-2.7-1.2-2.9c-0.1,0-0.3,0-0.4,0h-16.7v16.9c0,5.2-0.1,7.4-1.6,12.2l-6.3,20.7c-0.2,0.7-0.5,1.1-0.8,1.1
	c-0.7,0-2.6-1.9-2.6-3.4c0-0.5,0.1-1,0.3-1.4l6-20.1c1.1-3.6,1.2-5.4,1.2-10.1v-15.9h-7.9c-0.9,0-1.3-0.7-1.3-3.4
	c0-2.8,0.4-3.5,1.3-3.5h7.9V193c0-1.8,0.4-2.5,1.9-2.5c1.6,0,1.9,0.8,1.9,2.5v8.7h18.4c2.5,0,3.8,2.3,3.8,6.7v43.2
	C349,256.4,347.7,258.8,345.4,258.8z"/>
<path class="st0" d="M396.3,223.5h-10.8v10.6c0.1,2.9-0.4,5.8-1.3,8.1l-4.2,12.5c-1.1,3.1-2,4-4.4,4h-12.5c-0.9,0-1.3-0.7-1.3-3.3
	c0-2.6,0.4-3.4,1.3-3.4h11.7c1.2,0,1.8-0.4,2.2-1.9l3.9-11.9c0.6-1.4,0.8-3.1,0.8-4.9v-9.8h-20.6c-0.9,0-1.3-0.8-1.3-3.5
	s0.4-3.4,1.3-3.4h35.2c0.9,0,1.3,0.7,1.3,3.4C397.7,222.8,397.3,223.5,396.3,223.5z M390.6,199.9h-28.2c-0.9,0-1.3-0.7-1.3-3.5
	s0.4-3.4,1.3-3.4h28.3c0.9,0,1.2,0.8,1.2,3.4S391.6,199.9,390.6,199.9L390.6,199.9z M392.6,191.3h-1.7c-0.5,0-0.9-0.7-0.9-1.6
	c0,0,0-0.1,0-0.1v-3c0-0.9,0.4-1.7,0.9-1.7c0,0,0,0,0,0h1.7c0.5,0,0.9,0.7,0.9,1.6c0,0,0,0.1,0,0.1v3
	C393.5,190.6,393.1,191.3,392.6,191.3L392.6,191.3z M398.5,191.3h-1.7c-0.5,0-0.9-0.8-0.9-1.7v-3c0-0.9,0.4-1.7,0.9-1.7c0,0,0,0,0,0
	h1.7c0.5-0.1,0.9,0.6,0.9,1.5c0,0.1,0,0.1,0,0.2v3C399.5,190.6,399.1,191.3,398.5,191.3C398.6,191.3,398.6,191.3,398.5,191.3
	L398.5,191.3z"/>
<path class="st0" d="M440.8,206.3h-6.4c-0.5,0-1-0.1-1.4-0.3l-24-8.8c-0.8-0.3-1.2-0.7-1.2-2.2c0-1.5,0.2-4.6,1.1-4.6
	c0.1,0,0.3,0,0.4,0.1l23.5,8.5c0.6,0.2,1.3,0.3,1.9,0.3h6.2c0.9,0,1.3,0.8,1.3,3.4S441.8,206.3,440.8,206.3z M440.8,232.6h-6.4
	c-0.5,0-1-0.1-1.4-0.3l-24-8.7c-0.8-0.3-1.2-0.7-1.2-2.3s0.2-4.6,1.1-4.6c0.1,0,0.3,0,0.4,0.1l23.5,8.6c0.6,0.2,1.3,0.3,1.9,0.3h6.2
	c0.9,0,1.3,0.8,1.3,3.4S441.8,232.6,440.8,232.6L440.8,232.6z M440.8,258.8h-6.4c-0.5,0-1-0.1-1.4-0.3l-24-8.7
	c-0.8-0.3-1.2-0.7-1.2-2.3c0-1.3,0.2-4.6,1.1-4.6c0.1,0,0.3,0,0.4,0.1l23.5,8.5c0.6,0.2,1.3,0.4,1.9,0.3h6.2c0.9,0,1.3,0.7,1.3,3.5
	S441.8,258.8,440.8,258.8z"/>
<path class="st0" d="M458.1,231.8c-1.1,0-1.5-0.5-1.5-1.9v-11.7c0.1-1.7-0.1-3.3-0.7-4.6l-1.3-3.4c-0.2-0.4-0.3-0.8-0.3-1.3
	c0-1.2,1.5-2.9,2-2.9c0.4,0.1,0.7,0.4,0.8,1l1.6,3.9c1,2.4,1,3,1,6.2v12.7C459.7,231.1,459.3,231.8,458.1,231.8z M483.6,241.7
	l-5.6,13.8c-1,2.5-1.9,3.3-3.7,3.3h-14.4c-0.7,0-1.1-0.8-1.1-2.9c0-2.1,0.3-2.9,1.1-2.9h13.6c0.9,0,1.4-0.2,1.8-1.4l5.4-13.3
	c0.7-1.7,0.7-2.4,0.7-4.9v-25.9c0-1.2,0.6-1.8,1.7-1.8c1.1,0,1.7,0.5,1.7,2v26.5C484.8,237.6,484.7,239.1,483.6,241.7L483.6,241.7z
	 M468.9,231.8c-1.2,0-1.5-0.5-1.5-1.9v-11.7c0.1-1.7-0.1-3.3-0.7-4.6l-1.3-3.4c-0.2-0.4-0.3-0.8-0.3-1.3c0-1.2,1.5-2.9,2-2.9
	c0.4,0,0.7,0.4,0.8,1l1.6,3.9c1,2.4,1,3,1,6.2v12.7C470.5,231.1,470.1,231.8,468.9,231.8L468.9,231.8z"/>
<path class="st0" d="M533.5,235.7l-8,19.1c-1.3,3.1-2.3,4-4.6,4h-16.1c-0.9,0-1.3-0.8-1.3-3.4s0.4-3.5,1.3-3.5h15.4
	c0.9,0.2,1.8-0.6,2.4-2l7.7-18.3c0.8-2,1-3,1-6.1v-23.1c0.1-1.4-0.5-2.7-1.3-2.9c-0.1,0-0.2,0-0.3,0h-16.7c-0.6-0.1-1.1,0.3-1.5,1.1
	l-7.2,16.2c-0.5,1.1-1.2,1.8-2,1.9H499c-0.9,0-1.3-0.6-1.3-3.4s0.3-3.5,1.3-3.5h2.1c0.5,0,0.7-0.1,1.2-1.3l7.1-16.1
	c0.6-1.2,1.4-1.8,2.3-1.8h19.5c2.5,0,3.7,2.3,3.7,7v27C534.9,230.6,534.8,232.4,533.5,235.7z"/>
<path class="st0" d="M580.9,223.9l-2,5.6c-1,2.7-1.8,3.8-4.3,3.8h-11.4c-0.9,0-1.2-0.8-1.2-3.2c0-2.6,0.3-3.5,1.2-3.5h10.5
	c1.2,0,1.7-0.4,2.1-1.7l1.7-4.6c0.5-1.3,0.8-2.9,0.7-4.5v-4.8c0.1-1.4-0.5-2.7-1.2-2.9c-0.1,0-0.2,0-0.4,0h-24.9v32.3
	c0,9.6,1.3,11.6,6.3,11.6h21.3c0.9,0,1.4,0.7,1.4,3.5s-0.4,3.4-1.4,3.4h-22.4c-6.5,0-9-4.1-9-16.5v-34.1h-2.6
	c-0.8,0-1.3-0.8-1.3-3.7c0-2.5,0.5-3.2,1.3-3.2h2.6v-7.8c0-1.7,0.4-2.4,1.9-2.4s1.9,0.7,1.9,2.4v7.8h26.6c2.5,0,3.8,2.3,3.8,6.8v8.7
	C582.2,219.3,581.8,221.9,580.9,223.9z"/>
<path class="st0" d="M625.6,237.5l-7,17.2c-1.3,3.1-2.3,4.1-4.8,4.1h-21.4c-0.9,0-1.3-0.8-1.3-3.4s0.4-3.5,1.3-3.5h20.9
	c0.9,0.2,1.8-0.6,2.3-1.9l6.7-16.6c0.8-2,1-3,1-6.2v-33.9c0-1.5,0.6-2.4,1.9-2.4s1.9,0.7,1.9,2.6v34.9
	C627.1,232.5,627,234.2,625.6,237.5z M609.8,204.8h-16.4c-0.9,0-1.4-0.8-1.4-3.5s0.4-3.4,1.4-3.4h16.4c0.9,0,1.4,0.7,1.4,3.4
	S610.7,204.8,609.8,204.8z"/>
<path class="st0" d="M672.9,235.7h-5.3c-0.8,0.1-1.6-0.2-2.3-0.8l-19.6-15.8v37.9c0,1.7-0.4,2.5-1.9,2.5s-1.9-0.7-1.9-2.5v-63.6
	c0-1.7,0.4-2.4,1.9-2.4s1.9,0.7,1.9,2.4v18.4l20.8,16.5c0.4,0.4,0.9,0.6,1.4,0.6h5.1c0.9,0,1.4,0.7,1.4,3.5S673.9,235.7,672.9,235.7
	z"/>
<path class="st0" d="M718,241.5l-6,13.3c-1.3,3-2.1,4-4.4,4h-20.3c-0.9,0-1.3-0.8-1.3-3.4c0-2.6,0.4-3.5,1.3-3.5h19.4
	c0.9,0.1,1.8-0.6,2.4-2l5.5-12c0.8-1.8,1-2.5,1-5.3v-10.5c0.1-1.4-0.5-2.7-1.3-2.9c-0.1,0-0.2,0-0.3,0h-28.4c-1.1,0-1.4-0.8-1.4-3.5
	c0-2.6,0.3-3.4,1.5-3.4h30c2.5,0,3.7,2.4,3.7,6.9v14.3C719.4,237.6,719.2,238.9,718,241.5z M716.8,199.6h-30.4
	c-0.9,0-1.3-0.8-1.3-3.5s0.4-3.4,1.3-3.4h30.4c0.9,0,1.3,0.8,1.3,3.4S717.8,199.6,716.8,199.6L716.8,199.6z"/>
<path class="st0" d="M736.3,234.6l-5.1,22.5c-0.2,1.3-0.5,2-1.2,2s-2.6-0.8-2.6-2.4c0-0.4,0.1-0.8,0.1-1.2l5.1-22
	c0.8-3.1,1.2-6.6,1.1-10v-29.9c0-1.7,0.4-2.6,1.9-2.6c1.5,0,1.9,0.8,1.9,2.6v29.7C737.7,227.1,737.3,231,736.3,234.6z M763.6,253.7
	c-0.4,3-1.8,5.1-3.5,5.2h-8.1c-2.6,0-4.1-2.8-4.1-7.5v-57.9c0-1.7,0.4-2.4,1.9-2.4s1.9,0.7,1.9,2.4v55.6c-0.1,1.5,0.5,2.8,1.3,3
	c0.1,0,0.2,0,0.3,0h5c1,0.2,1.8-1,2-2.7c0,0,0,0,0-0.1l4.1-27.8c0.1-1.3,0.7-2.2,1.4-2.1c0.8,0,2.3,0.4,2.3,2.3c0,0.3,0,0.6-0.1,0.9
	L763.6,253.7z"/>
</svg>
